<?xml version="1.0" encoding="UTF-8" standalone="no"?>
<!-- Created with Inkscape (http://www.inkscape.org/) -->

<svg
   width="120"
   height="120"
   viewBox="0 0 120 120"
   version="1.1"
   id="svg1"
   xml:space="preserve"
   inkscape:version="1.3.2 (091e20e, 2023-11-25, custom)"
   sodipodi:docname="Logo.svg"
   inkscape:export-filename="LogoCanalConTexto.png"
   inkscape:export-xdpi="800"
   inkscape:export-ydpi="800"
   xmlns:inkscape="http://www.inkscape.org/namespaces/inkscape"
   xmlns:sodipodi="http://sodipodi.sourceforge.net/DTD/sodipodi-0.dtd"
   xmlns="http://www.w3.org/2000/svg"
   xmlns:svg="http://www.w3.org/2000/svg"><sodipodi:namedview
     id="namedview1"
     pagecolor="#ffffff"
     bordercolor="#000000"
     borderopacity="0.25"
     inkscape:showpageshadow="2"
     inkscape:pageopacity="0.0"
     inkscape:pagecheckerboard="0"
     inkscape:deskcolor="#d1d1d1"
     inkscape:document-units="px"
     inkscape:zoom="4"
     inkscape:cx="44.5"
     inkscape:cy="70.625"
     inkscape:window-width="1280"
     inkscape:window-height="961"
     inkscape:window-x="-8"
     inkscape:window-y="-8"
     inkscape:window-maximized="1"
     inkscape:current-layer="layer1"
     inkscape:export-bgcolor="#ffffff00" /><defs
     id="defs1"><filter
       inkscape:collect="always"
       style="color-interpolation-filters:sRGB"
       id="filter181"
       x="-0.010716174"
       y="-0.013127081"
       width="1.0214323"
       height="1.0262542"><feGaussianBlur
         inkscape:collect="always"
         stdDeviation="0.50513201"
         id="feGaussianBlur181" /></filter></defs><g
     inkscape:label="Capa 1"
     inkscape:groupmode="layer"
     id="layer1"><path
       id="path10"
       style="display:inline;opacity:1;mix-blend-mode:normal;fill:#1a1a1a;fill-opacity:1;stroke-width:25.9909;filter:url(#filter181)"
       d="m 60.117876,16.616713 c -0.03545,0 -0.07022,0.0018 -0.105651,0.0019 -10.295229,0.02979 -19.706677,3.907613 -26.960314,10.296208 h -0.0019 v -0.0019 h -0.0019 V 26.911 h -0.0019 v -0.0038 h -0.0019 -0.0019 c -0.0015,-3.84e-4 -0.0021,-0.0039 -0.0038,-0.0058 0,-2e-5 -0.003,-10e-4 -0.0038,-0.0019 v -0.0019 h -0.0019 v -0.0019 h -0.0019 v -0.0019 h -0.0019 v -0.0019 l -0.0019,-0.0019 v -0.0019 h -0.0019 v -0.0019 -0.0019 h -0.0019 v -0.0019 h -0.0019 v -0.0019 -0.0019 h -0.0019 v -0.0019 l -0.0019,-0.0019 h -0.0019 c -0.0013,-0.0013 -0.0015,-0.0034 -0.0019,-0.0038 l -0.0019,-0.0019 v -0.0019 l -0.0019,-0.0019 -0.0019,-0.0038 -0.0019,-0.0019 -0.0019,-0.0019 -0.0058,-0.0019 V 26.852 c -0.0014,-0.0017 -0.008,-0.0096 -0.0096,-0.01153 l -0.0019,-0.0019 -0.0019,-0.0019 -0.0019,-0.0019 v -0.0019 l -0.0019,-0.0019 v -0.0019 c -0.0024,-0.0029 -0.0032,-0.0026 -0.0058,-0.0058 l -0.0019,-0.0019 -0.0019,-0.0019 c -0.0018,-0.0022 -0.0019,-0.0015 -0.0038,-0.0038 -0.0012,-0.0015 -0.0026,-0.0043 -0.0038,-0.0058 -0.0012,-0.0015 -0.0026,-0.0042 -0.0038,-0.0058 -0.0032,-0.0039 -0.01008,-0.01124 -0.01345,-0.01537 -8.72e-4,-0.0011 -0.0029,-0.0027 -0.0038,-0.0038 -0.0066,-0.0081 -0.01764,-0.02376 -0.02497,-0.03266 -0.003,-0.0036 -0.0083,-0.0077 -0.01152,-0.01153 l -0.0019,-0.0019 v -0.0019 h -0.0019 l -0.0019,-0.0019 c -0.0024,-0.0029 -0.0053,-0.0066 -0.0077,-0.0096 l -0.0019,-0.0019 v -0.0019 l -0.0019,-0.0019 -0.0019,-0.0019 -0.0019,-0.0019 -0.0019,-0.0019 -0.0019,-0.0038 c -0.002,-0.0024 -0.0037,-0.0053 -0.0058,-0.0077 l -0.0019,-0.0019 v -0.0019 l -0.0019,-0.0019 -0.0019,-0.0019 -0.0038,-0.0038 -0.0019,-0.0019 -0.0019,-0.0019 -0.0019,-0.0019 c -9.29e-4,-0.0011 -8.74e-4,-0.0027 -0.0019,-0.0038 l -0.0019,-0.0019 -0.0019,-0.0019 -0.0019,-0.0019 v -0.0019 c -0.0044,-0.0052 -0.0106,-0.01165 -0.01537,-0.01729 -0.0053,-0.0063 -0.01379,-0.01464 -0.01921,-0.02113 l -0.0019,-0.0019 -0.0019,-0.0019 c -0.0036,-0.0043 -0.0079,-0.0091 -0.01153,-0.01345 -0.0019,-0.0022 -0.0058,-0.0073 -0.0077,-0.0096 l -0.0019,-0.0019 -0.0019,-0.0038 c -0.0018,-0.0021 -0.002,-0.0036 -0.0038,-0.0058 l -0.0019,-0.0019 -0.0019,-0.0019 -0.0019,-0.0019 c -0.0025,-0.0029 -0.0052,-0.0066 -0.0077,-0.0096 l -0.0019,-0.0019 v -0.0019 c -0.0014,-0.0017 -0.0063,-0.006 -0.0077,-0.0077 l -0.0019,-0.0019 -0.0019,-0.0019 v -0.0019 l -0.0019,-0.0019 -0.0038,-0.0019 -0.0019,-0.0019 -0.0019,-0.0019 -0.0019,-0.0019 c -0.0022,-0.0026 -0.0055,-0.0069 -0.0077,-0.0096 l -0.0019,-0.0019 c -0.0035,-0.0042 -0.0061,-0.0093 -0.0096,-0.01345 -0.01514,-0.01803 -0.03778,-0.04437 -0.05379,-0.06339 l -0.0019,-0.0019 c -0.0024,-0.0028 -0.0053,-0.0067 -0.0077,-0.0096 v -0.0019 l -0.0019,-0.0019 -0.0038,-0.0019 -0.0019,-0.0019 c -0.01134,-0.01339 -0.02093,-0.02644 -0.03266,-0.04034 -9.31e-4,-0.0011 -8.74e-4,-0.0027 -0.0019,-0.0038 -5.39e-4,-6.38e-4 -0.152024,-0.257819 -0.303507,-0.514811 l -0.885551,-1.671213 c -0.06189,-0.07321 0.993733,1.957401 0.931653,1.884437 -0.0021,-0.0025 -0.0037,-0.0052 -0.0058,-0.0077 -0.0012,-0.0015 -0.0026,-0.0023 -0.0038,-0.0038 -0.0042,-0.0049 -0.0074,-0.0124 -0.01153,-0.01729 -0.0012,-0.0014 -0.0026,-0.0024 -0.0038,-0.0038 -0.0033,-0.0038 -0.0063,-0.0077 -0.0096,-0.01153 -0.0064,-0.0075 -0.0148,-0.01371 -0.02113,-0.02113 -0.0038,-0.0044 -0.0078,-0.0091 -0.01152,-0.01345 -0.0023,-0.0027 -0.0034,-0.005 -0.0058,-0.0077 -0.0058,-0.0068 -0.0096,-0.01056 -0.01537,-0.01729 -0.0031,-0.0036 -0.0065,-0.0079 -0.0096,-0.01153 -10e-4,-0.0012 -8.05e-4,-0.0026 -0.0019,-0.0038 -0.0065,-0.0076 -0.01085,-0.01551 -0.01729,-0.02305 l -0.0019,-0.0019 c -0.0017,-0.002 -0.0021,-0.0037 -0.0038,-0.0058 -0.0032,-0.0037 -0.0084,-0.0078 -0.01152,-0.01152 l -0.0019,-0.0019 -0.0019,-0.0019 -0.0038,-0.0019 c -0.0075,-0.0088 -0.01186,-0.01447 -0.01921,-0.02305 l -0.0019,-0.0019 c -0.0037,-0.0043 -0.0075,-0.009 -0.01153,-0.01345 -0.0018,-0.0021 -0.002,-0.0017 -0.0038,-0.0038 -0.0083,-0.0096 -0.01691,-0.02328 -0.02497,-0.03266 l -0.0019,-0.0019 -0.0019,-0.0019 -0.0019,-0.0019 -0.0019,-0.0019 -0.0019,-0.0019 c -0.01404,-0.01635 -0.03469,-0.03829 -0.04802,-0.05379 -0.0058,-0.0068 -0.0058,-0.0069 -0.01152,-0.01345 -0.0074,-0.0086 -0.0082,-0.01093 -0.01537,-0.01921 -0.003,-0.0034 -0.0028,-0.0043 -0.0058,-0.0077 l -0.0019,-0.0019 c -0.0088,-0.01024 -0.02044,-0.023 -0.02881,-0.03266 v -0.0019 c -0.0041,-0.0047 -0.0037,-0.005 -0.0077,-0.0096 -0.0022,-0.0025 -0.0056,-0.0052 -0.0077,-0.0077 l -0.0019,-0.0019 -0.0019,-0.0019 -0.0038,-0.0019 c -0.0025,-0.0029 -0.0033,-0.0029 -0.0058,-0.0058 l -0.0019,-0.0019 v -0.0019 c -0.0036,-0.0042 -0.0042,-0.0037 -0.0077,-0.0077 -0.0069,-0.0079 -0.0089,-0.01178 -0.01537,-0.01921 l -0.0019,-0.0019 v -0.0019 c -0.0018,-0.0021 -0.004,-0.0056 -0.0058,-0.0077 v -0.0019 c -0.0015,-0.0017 -0.0024,-0.0022 -0.0038,-0.0038 h -0.0019 v -0.0019 l -0.0038,-0.0019 -0.01537,-0.01729 -0.0019,-0.0019 -0.0019,-0.0019 -0.0019,-0.0019 -0.0019,-0.0019 v -0.0019 l -0.0019,-0.0019 h -0.0019 c -0.0012,-0.0014 -0.0026,-0.0025 -0.0038,-0.0038 -0.0012,-0.0013 -0.0027,-0.0025 -0.0038,-0.0038 -6.97e-4,-7.77e-4 -0.0031,-0.003 -0.0038,-0.0038 l -0.0019,-0.0019 -0.0019,-0.0019 c -7.13e-4,-8.03e-4 -0.0031,-0.003 -0.0038,-0.0038 l -0.0019,-0.0038 c -0.0017,-0.0019 -0.0042,-0.0078 -0.0058,-0.0096 -0.0053,-0.0059 -0.0089,-0.0084 -0.01345,-0.01345 -0.0013,-0.0014 -0.0046,-0.0045 -0.0058,-0.0058 l -0.0019,-0.0019 c -7.14e-4,-7.75e-4 -0.0031,-0.0031 -0.0038,-0.0038 v -0.0019 l -0.0019,-0.0019 c -0.0015,-0.0016 -0.0083,-0.0082 -0.0096,-0.0096 -0.0014,-0.0014 -0.0025,-0.0044 -0.0038,-0.0058 h -0.0019 v -0.0019 h -0.0019 l -0.0019,-0.0019 v -0.0019 l -0.0019,-0.0019 -0.0019,-0.0019 h -0.0019 l -0.0019,-0.0019 v -0.0019 c -9.33e-4,-9.03e-4 -0.0049,-0.003 -0.0058,-0.0038 h -0.0019 v -0.0038 l -0.0019,-0.0019 h -0.0019 v -0.0019 h -0.0019 l -0.0019,-0.0019 h -0.0019 l -0.0019,-0.0019 v -0.0019 h -0.0019 -0.0019 -0.0019 -0.0038 l 0.0019,0.0019 v 0.0019 0.0019 0.0019 0.0019 0.0038 0.0019 0.0019 0.0019 0.0019 l 0.0019,0.0019 v 0.0019 0.0019 0.0019 0.0019 0.0019 0.0019 c 1.18e-4,0.0011 0.0017,0.0026 0.0019,0.0038 v 0.0019 0.0019 0.0019 0.0019 0.0019 l 0.0019,0.0019 v 0.0019 0.0019 0.0019 0.0019 0.0019 c 4.49e-4,0.0033 0.0013,0.006 0.0019,0.0096 1.25e-4,9.46e-4 -1.3e-4,0.0028 0,0.0038 v 0.0019 0.0019 c 9e-5,6.06e-4 0.0018,0.0051 0.0019,0.0058 v 0.0038 c 9.27e-4,0.0067 0.0026,0.015 0.0038,0.02305 v 0.0019 c 3.07e-4,0.002 0.0015,0.0113 0.0019,0.01345 v 0.0019 c 5.77e-4,0.0038 0.0012,0.0055 0.0019,0.0096 v 0.0019 0.0019 c 0.002,0.01338 0.0013,0.01628 0.0038,0.03266 9.65e-4,0.0062 0.0066,0.02225 0.0077,0.02881 v 0.0019 c 8.17e-4,0.0052 0.003,0.0176 0.0038,0.02305 v 0.0019 0.0019 c 3.6e-4,0.0023 0.0015,0.0072 0.0019,0.0096 v 0.0019 0.0019 c 2.48e-4,0.0016 0.0016,0.0042 0.0019,0.0058 0.0049,0.03139 0.0055,0.03871 0.01153,0.07684 6.25e-4,0.0039 0.0012,0.0095 0.0019,0.01345 0.0021,0.01316 0.0016,0.01117 0.0038,0.02497 v 0.0019 c 3.31e-4,0.0021 -3.33e-4,0.0017 0,0.0038 0.0019,0.01162 0.0058,0.03028 0.0077,0.04226 0.0073,0.0454 0.0168,0.107045 0.02497,0.157517 v 0.0019 c 6.05e-4,0.0037 0.0012,0.0077 0.0019,0.01153 v 0.0019 0.0019 c 2.24e-4,0.0014 0.0016,0.0024 0.0019,0.0038 0.0039,0.02394 0.0075,0.05012 0.01153,0.07492 0.0065,0.04023 0.01235,0.07906 0.01921,0.121019 0.0013,0.0082 0.0025,0.01481 0.0038,0.02305 0.0012,0.0073 6.3e-4,0.0119 0.0019,0.01921 4.41e-4,0.0027 0.0033,0.0069 0.0038,0.0096 v 0.0019 0.0019 l 0.0019,0.0019 v 0.0019 0.0019 0.0019 c 0.01015,0.06191 0.01835,0.111408 0.02881,0.174805 8.16e-4,0.0049 0.001,0.0085 0.0019,0.01345 0.0048,0.02901 0.0067,0.04783 0.01153,0.07684 4.32e-4,0.0026 0.0014,0.0031 0.0019,0.0058 9.46e-4,0.0057 8.74e-4,0.0078 0.0019,0.01345 0.0091,0.05518 0.01215,0.08044 0.02113,0.134465 0.004,0.02374 -0.668563,-2.107634 -0.664643,-2.084214 0.0013,0.0081 -0.489217,-0.353778 -0.487917,-0.345768 0.01313,0.07866 0.82017,1.851315 1.056514,2.403089 0.07584,0.245277 0.206765,0.670188 0.207461,0.674248 l -0.983519,-2.149526 c 9.29e-4,0.0054 0.98454,2.157853 0.98544,2.162973 6.17e-4,0.0035 0.0013,0.0061 0.0019,0.0096 v 0.0019 c 0.0026,0.01462 0.01123,0.05464 0.01345,0.06723 1.77e-4,9.85e-4 -1.74e-4,0.0028 0,0.0038 v 0.0019 c 8.3e-4,0.0047 0.003,0.01673 0.0038,0.02113 4.98e-4,0.0028 0.0014,0.0031 0.0019,0.0058 1.49e-4,8.07e-4 -1.45e-4,0.003 0,0.0038 3.87e-4,0.0021 0.0034,0.0076 0.0038,0.0096 0.0014,0.008 6.75e-4,0.01426 0.0019,0.02113 1.3e-4,7e-4 -1.28e-4,0.0031 0,0.0038 2.94e-4,0.0015 0.0035,0.0082 0.0038,0.0096 v 0.0019 c 3.64e-4,0.0019 0.0015,0.0098 0.0019,0.01153 2.96e-4,0.0017 0.0016,0.0041 0.0019,0.0058 v 0.0019 0.0019 0.0019 c 2.68e-4,0.0016 0.0016,0.0043 0.0019,0.0058 4.18e-4,0.0021 -3.75e-4,0.0019 0,0.0038 6.83e-4,0.0038 0.0012,0.0074 0.0019,0.01153 8.59e-4,0.0051 0.0031,0.01878 0.0038,0.02305 1.86e-4,0.0014 -1.75e-4,0.0045 0,0.0058 v 0.0019 c 1.53e-4,0.0013 0.0017,0.0027 0.0019,0.0038 v 0.0038 C 23.774681,35.508473 18.48324,46.826177 18.483493,59.41666 c -7.2e-5,6.223277 1.329531,12.257243 3.766952,17.749433 -12.230374,5.527379 -18.6906915,10.4422 -18.6906915,10.4422 l 19.6914985,-8.22352 c 0,0 0.04459,-0.02669 0.04802,-0.02882 3.298404,6.436278 8.176444,12.009792 14.318645,16.066696 h -0.0461 l 22.442277,13.411961 v 0.13446 l 0.113335,-0.0672 0.111414,0.0672 v -0.13446 L 82.677329,95.423045 h -0.0461 C 88.77343,91.366142 93.65147,85.792628 96.949874,79.35635 c 0.0034,0.0021 0.04802,0.02881 0.04802,0.02881 l 19.691496,8.22352 c 0,0 -6.46031,-4.91482 -18.690689,-10.442199 2.437419,-5.49219 3.767029,-11.526157 3.766949,-17.749433 2.6e-4,-12.590483 -5.291185,-23.908187 -13.711627,-31.739599 v -0.0038 c 2e-4,-0.0011 0.0018,-0.0025 0.0019,-0.0038 v -0.0019 c 1.75e-4,-0.0013 -1.86e-4,-0.0044 0,-0.0058 7e-4,-0.0043 0.003,-0.01795 0.0038,-0.02305 7e-4,-0.0041 0.0012,-0.0077 0.0019,-0.01152 3.75e-4,-0.0019 -4.18e-4,-0.0017 0,-0.0038 3e-4,-0.0015 0.0017,-0.0042 0.0019,-0.0058 v -0.0019 -0.0019 -0.0019 c 3e-4,-0.0017 0.0016,-0.0041 0.0019,-0.0058 4e-4,-0.0017 0.0016,-0.0096 0.0019,-0.01153 v -0.0019 c 3e-4,-0.0014 0.0016,-0.0081 0.0019,-0.0096 1.28e-4,-7e-4 -1.3e-4,-0.0031 0,-0.0038 0.0012,-0.0069 5.21e-4,-0.01313 0.0019,-0.02113 4e-4,-0.002 0.0035,-0.0075 0.0038,-0.0096 1.45e-4,-8e-4 -1.49e-4,-0.003 0,-0.0038 5e-4,-0.0027 0.0014,-0.003 0.0019,-0.0058 8e-4,-0.0044 0.003,-0.01643 0.0038,-0.02113 v -0.0019 c 1.74e-4,-0.001 -1.77e-4,-0.0029 0,-0.0038 0.0022,-0.01259 0.01085,-0.05261 0.01345,-0.06723 v -0.0019 c 6e-4,-0.0035 0.0013,-0.0061 0.0019,-0.0096 9e-4,-0.0051 0.98451,-2.157573 0.985439,-2.162973 l -0.983518,2.149526 c 6.96e-4,-0.0041 0.131621,-0.428971 0.207461,-0.674248 0.236344,-0.551774 1.043384,-2.324429 1.056514,-2.403089 0.0013,-0.008 -0.489218,0.353868 -0.487918,0.345768 0.0039,-0.02342 -0.668643,2.107954 -0.664643,2.084214 0.009,-0.05402 0.01203,-0.07928 0.02113,-0.134465 10e-4,-0.0057 9.75e-4,-0.0077 0.0019,-0.01345 5e-4,-0.0027 0.0015,-0.0032 0.0019,-0.0058 0.0048,-0.02901 0.0067,-0.04783 0.01153,-0.07684 9e-4,-0.005 0.0011,-0.0085 0.0019,-0.01345 0.01046,-0.0634 0.01866,-0.112895 0.02881,-0.174805 v -0.0019 -0.0019 -0.0019 l 0.0019,-0.0019 v -0.0019 -0.0019 c 5e-4,-0.0027 0.0034,-0.0069 0.0038,-0.0096 0.0013,-0.0073 7.21e-4,-0.01191 0.0019,-0.01921 0.0013,-0.0082 0.0025,-0.01485 0.0038,-0.02305 0.0069,-0.04196 0.01271,-0.08079 0.01921,-0.121019 0.004,-0.0248 0.0076,-0.05098 0.01153,-0.07492 3e-4,-0.0014 0.0017,-0.0024 0.0019,-0.0038 v -0.0019 -0.0019 c 7e-4,-0.0038 0.0013,-0.0078 0.0019,-0.01153 v -0.0019 c 0.0082,-0.05047 0.01767,-0.112117 0.02497,-0.157517 0.0019,-0.01198 0.0058,-0.03064 0.0077,-0.04226 3.33e-4,-0.0021 -3.31e-4,-0.0017 0,-0.0038 v -0.0019 c 0.0022,-0.0138 0.0017,-0.01181 0.0038,-0.02497 7e-4,-0.0039 0.0013,-0.0095 0.0019,-0.01345 0.006,-0.03813 0.0066,-0.04545 0.01153,-0.07684 3e-4,-0.0016 0.0017,-0.0042 0.0019,-0.0058 v -0.0019 -0.0019 c 4e-4,-0.0024 0.0016,-0.0073 0.0019,-0.0096 v -0.0019 -0.0019 c 8e-4,-0.0054 0.003,-0.01785 0.0038,-0.02305 v -0.0019 c 0.0011,-0.0066 0.0067,-0.02261 0.0077,-0.02881 0.0025,-0.01638 0.0018,-0.01928 0.0038,-0.03266 v -0.0019 -0.0019 c 7e-4,-0.0041 0.0013,-0.0058 0.0019,-0.0096 v -0.0019 c 4e-4,-0.0022 0.0016,-0.01145 0.0019,-0.01345 v -0.0019 c 0.0012,-0.0081 0.0029,-0.01635 0.0038,-0.02305 v -0.0038 c 1e-4,-7e-4 0.0018,-0.0052 0.0019,-0.0058 v -0.0019 -0.0019 c 1.3e-4,-0.001 -1.25e-4,-0.0029 0,-0.0038 6e-4,-0.0036 0.0015,-0.0063 0.0019,-0.0096 v -0.0019 -0.0019 -0.0019 -0.0019 -0.0019 l 0.0019,-0.0019 v -0.0019 -0.0019 -0.0019 -0.0019 -0.0019 c 2e-4,-0.0012 0.0018,-0.0027 0.0019,-0.0038 v -0.0019 -0.0019 -0.0019 -0.0019 -0.0019 -0.0019 l 0.0019,-0.0019 v -0.0019 -0.0019 -0.0019 -0.0019 -0.0038 -0.0019 -0.0019 -0.0019 l 0.0019,-0.0019 h -0.0038 -0.0019 -0.0019 -0.0019 v 0.0019 l -0.0019,0.0019 h -0.0019 -0.0019 -0.0019 v 0.0019 h -0.0019 l -0.0019,0.0019 v 0.0038 h -0.0019 c -9e-4,8e-4 -0.0048,0.0029 -0.0058,0.0038 v 0.0019 l -0.0019,0.0019 h -0.0019 l -0.0019,0.0019 -0.0019,0.0019 v 0.0019 l -0.0019,0.0019 h -0.0019 v 0.0019 h -0.0019 c -0.0013,0.0014 -0.0024,0.0044 -0.0038,0.0058 -0.0013,0.0014 -0.0081,0.008 -0.0096,0.0096 l -0.0019,0.0019 v 0.0019 c -7e-4,7e-4 -0.0031,0.0031 -0.0038,0.0038 l -0.0019,0.0019 c -0.0012,0.0013 -0.0045,0.0044 -0.0058,0.0058 -0.0045,0.0051 -0.0081,0.0075 -0.01345,0.01345 -0.0016,0.0018 -0.0041,0.0077 -0.0058,0.0096 l -0.0019,0.0038 c -7e-4,8e-4 -0.0031,0.003 -0.0038,0.0038 l -0.0019,0.0019 -0.0019,0.0019 c -7e-4,8e-4 -0.0031,0.0031 -0.0038,0.0038 -0.0011,0.0013 -0.0026,0.0025 -0.0038,0.0038 -0.0012,0.0013 -0.0026,0.0024 -0.0038,0.0038 h -0.0019 l -0.0019,0.0019 v 0.0019 l -0.0019,0.0019 -0.0019,0.0019 v 0.0019 l -0.0019,0.0019 -0.01537,0.01729 -0.0038,0.0019 v 0.0019 h -0.0019 c -0.0014,0.0016 -0.0023,0.0021 -0.0038,0.0038 v 0.0019 c -0.0018,0.0021 -0.004,0.0056 -0.0058,0.0077 v 0.0019 l -0.0019,0.0019 c -0.0065,0.0074 -0.0085,0.01131 -0.01537,0.01921 -0.0035,0.004 -0.0041,0.0035 -0.0077,0.0077 v 0.0019 l -0.0019,0.0019 c -0.0025,0.0029 -0.0033,0.0029 -0.0058,0.0058 l -0.0038,0.0019 -0.0019,0.0019 -0.0019,0.0019 c -0.0021,0.0025 -0.0055,0.0052 -0.0077,0.0077 -0.004,0.0046 -0.0036,0.0049 -0.0077,0.0096 v 0.0019 c -0.0084,0.0097 -0.02001,0.02242 -0.02881,0.03266 l -0.0019,0.0019 c -0.003,0.0034 -0.0028,0.0043 -0.0058,0.0077 -0.0072,0.0083 -0.008,0.01061 -0.01537,0.01921 -0.0057,0.0066 -0.0057,0.0066 -0.01153,0.01345 -0.01333,0.0155 -0.03398,0.03744 -0.04802,0.05379 l -0.0019,0.0019 -0.0019,0.0019 -0.0019,0.0019 -0.0019,0.0019 -0.0019,0.0019 c -0.0081,0.0094 -0.01667,0.02306 -0.02497,0.03266 -0.0018,0.0021 -0.002,0.0017 -0.0038,0.0038 -0.004,0.0044 -0.0078,0.0091 -0.01152,0.01345 l -0.0019,0.0019 c -0.0074,0.0086 -0.01171,0.01425 -0.01921,0.02305 l -0.0038,0.0019 -0.0019,0.0019 -0.0019,0.0019 c -0.0031,0.0037 -0.0083,0.0078 -0.01153,0.01152 -0.0017,0.0021 -0.0021,0.0038 -0.0038,0.0058 l -0.0019,0.0019 c -0.0064,0.0075 -0.01079,0.01545 -0.01729,0.02305 -0.0011,0.0012 -9.21e-4,0.0026 -0.0019,0.0038 -0.0031,0.0036 -0.0065,0.0079 -0.0096,0.01153 -0.0058,0.0067 -0.0096,0.01049 -0.01537,0.01729 -0.0024,0.0027 -0.0035,0.005 -0.0058,0.0077 -0.0037,0.0043 -0.0077,0.009 -0.01153,0.01345 -0.0063,0.0074 -0.01473,0.01363 -0.02113,0.02113 -0.0033,0.0038 -0.0063,0.0077 -0.0096,0.01153 -0.0012,0.0014 -0.0026,0.0024 -0.0038,0.0038 -0.0041,0.0049 -0.0073,0.01239 -0.01153,0.01729 -0.0012,0.0015 -0.0026,0.0023 -0.0038,0.0038 -0.0021,0.0025 -0.0037,0.0052 -0.0058,0.0077 -0.06208,0.07296 0.993543,-1.957647 0.931654,-1.884437 l -0.885551,1.671213 c -0.151483,0.256992 -0.302969,0.514173 -0.303508,0.514811 -0.001,0.0011 -9.9e-4,0.0027 -0.0019,0.0038 -0.01173,0.0139 -0.02132,0.02695 -0.03266,0.04034 l -0.0019,0.0019 -0.0038,0.0019 -0.0019,0.0019 v 0.0019 c -0.0024,0.0029 -0.0053,0.0068 -0.0077,0.0096 l -0.0019,0.0019 c -0.01601,0.01902 -0.03865,0.04536 -0.05379,0.06339 -0.0035,0.0041 -0.0061,0.0092 -0.0096,0.01345 l -0.0019,0.0019 c -0.0022,0.0027 -0.0055,0.007 -0.0077,0.0096 l -0.0019,0.0019 -0.0019,0.0019 -0.0019,0.0019 -0.0038,0.0019 -0.0019,0.0019 v 0.0019 l -0.0019,0.0019 -0.0019,0.0019 c -0.0014,0.0017 -0.0063,0.006 -0.0077,0.0077 v 0.0019 l -0.0019,0.0019 c -0.0025,0.003 -0.0052,0.0067 -0.0077,0.0096 l -0.0019,0.0019 -0.0019,0.0019 -0.0019,0.0019 c -0.0018,0.0022 -0.002,0.0037 -0.0038,0.0058 l -0.0019,0.0038 -0.0019,0.0019 c -0.0019,0.0023 -0.0058,0.0074 -0.0077,0.0096 -0.0036,0.0043 -0.0079,0.0091 -0.01152,0.01345 l -0.0019,0.0019 -0.0019,0.0019 c -0.0054,0.0065 -0.01391,0.01483 -0.01921,0.02113 -0.0048,0.0056 -0.01097,0.01209 -0.01537,0.01729 v 0.0019 l -0.0019,0.0019 -0.0019,0.0019 -0.0019,0.0019 c -0.001,0.0011 -9.92e-4,0.0027 -0.0019,0.0038 l -0.0019,0.0019 -0.0019,0.0019 -0.0019,0.0019 -0.0038,0.0038 h -0.0019 l -0.0019,0.0019 v 0.0019 l -0.0019,0.0019 c -0.0021,0.0024 -0.0038,0.0053 -0.0058,0.0077 l -0.0019,0.0038 -0.0019,0.0019 -0.0019,0.0019 -0.0019,0.0019 -0.0019,0.0019 v 0.0019 l -0.0019,0.0019 c -0.0024,0.003 -0.0053,0.0067 -0.0077,0.0096 l -0.0019,0.0019 h -0.0019 v 0.0019 l -0.0019,0.0019 c -0.0032,0.0038 -0.0085,0.0079 -0.01153,0.01153 -0.0073,0.0089 -0.01837,0.02456 -0.02497,0.03266 -9e-4,0.0011 -0.003,0.0027 -0.0038,0.0038 -0.0034,0.0041 -0.01025,0.01147 -0.01345,0.01537 -0.0012,0.0016 -0.0026,0.0043 -0.0038,0.0058 -0.0012,0.0015 -0.0026,0.0043 -0.0038,0.0058 -0.0019,0.0023 -0.002,0.0016 -0.0038,0.0038 l -0.0019,0.0019 -0.0019,0.0019 c -0.0026,0.0032 -0.0034,0.0029 -0.0058,0.0058 v 0.0019 l -0.0019,0.0019 v 0.0019 l -0.0019,0.0019 -0.0019,0.0019 -0.0019,0.0019 c -0.0016,0.0019 -0.0082,0.0098 -0.0096,0.01153 v 0.0038 l -0.0058,0.0019 -0.0019,0.0019 -0.0019,0.0019 -0.0019,0.0038 -0.0019,0.0019 v 0.0019 l -0.0019,0.0019 c -4e-4,4e-4 -6.21e-4,0.0025 -0.0019,0.0038 h -0.0019 l -0.0019,0.0019 v 0.0019 h -0.0019 v 0.0019 0.0019 h -0.0019 v 0.0019 h -0.0019 v 0.0019 0.0019 h -0.0019 v 0.0019 l -0.0019,0.0019 v 0.0019 h -0.0019 v 0.0019 h -0.0019 v 0.0019 h -0.0019 v 0.0019 c -8e-4,9e-4 -0.0038,0.0019 -0.0038,0.0019 -0.0017,0.0019 -4.21e-4,0.0054 -0.0019,0.0058 h -0.0019 -0.0019 v 0.0038 h -0.0019 v 0.0019 h -0.0019 v 0.0019 h -0.0019 C 79.943678,20.526271 70.532156,16.648451 60.236974,16.618634 c -0.03992,-1.16e-4 -0.07915,-0.0019 -0.119098,-0.0019 z m -27.667218,9.516309 c 0.03561,0.06251 0.115406,0.200655 0.111415,0.195935 -0.0059,-0.007 -0.01332,-0.01416 -0.01921,-0.02113 z m 55.347882,0 -0.09221,0.174805 c -0.0059,0.007 -0.01331,0.01413 -0.01921,0.02113 -0.004,0.0047 0.0758,-0.133425 0.111414,-0.195935 z m -55.841562,0.651197 c 0.02731,0.06429 0.132973,0.298503 0.134466,0.307349 5.16e-4,0.0031 0.0013,0.0065 0.0019,0.0096 0.0037,0.02175 0.008,0.04826 0.01152,0.06915 5.36e-4,0.0032 0.0013,0.0064 0.0019,0.0096 6.97e-4,0.0041 0.0012,0.01128 0.0019,0.01537 0.0015,0.0088 0.0043,0.02017 0.0058,0.02881 v 0.0019 c 9.91e-4,0.0059 8.49e-4,0.0077 0.0019,0.01345 4.05e-4,0.0024 0.0015,0.0054 0.0019,0.0077 0.0015,0.009 0.0023,0.02201 0.0038,0.03073 v 0.0019 c 0.0024,0.01425 0.0034,0.01332 0.0058,0.02689 v 0.0019 0.0019 c 7.85e-4,0.0046 0.0011,0.0032 0.0019,0.0077 9.63e-4,0.0056 8.74e-4,0.006 0.0019,0.01153 0.003,0.01754 0.0049,0.02612 0.0077,0.04226 z m 56.335242,0 -0.182488,0.587806 c 0.0028,-0.01614 0.0047,-0.02472 0.0077,-0.04226 0.001,-0.0055 9.58e-4,-0.0059 0.0019,-0.01153 8e-4,-0.0045 0.0011,-0.0031 0.0019,-0.0077 v -0.0019 -0.0019 c 0.0024,-0.01357 0.0034,-0.01264 0.0058,-0.02689 v -0.0019 c 0.0015,-0.0087 0.0023,-0.02174 0.0038,-0.03073 4e-4,-0.0023 0.0015,-0.0053 0.0019,-0.0077 0.0011,-0.0057 9.3e-4,-0.0075 0.0019,-0.01345 v -0.0019 c 0.0015,-0.0086 0.0043,-0.02001 0.0058,-0.02881 7e-4,-0.0041 0.0012,-0.01127 0.0019,-0.01537 6e-4,-0.0032 0.0014,-0.0064 0.0019,-0.0096 0.0035,-0.02089 0.0078,-0.0474 0.01153,-0.06915 6e-4,-0.0031 0.0014,-0.0065 0.0019,-0.0096 0.0015,-0.0088 0.107155,-0.243059 0.134465,-0.307349 z"
       transform="matrix(1.0364572,0,0,1.0364572,-2.2068558,-3.3900361)" /><path
       id="path11"
       style="display:inline;opacity:1;fill:#a18570;fill-opacity:1;stroke-width:25.9114"
       d="m 29.095441,19.120482 0.748602,5.477148 1.992958,14.42455 c 0,0 1.021367,7.400291 1.021367,7.507935 0,0.107644 0.700819,1.588789 0.700819,1.588789 l 3.147717,5.759866 h 0.457923 l 0.670955,-1.483269 1.616666,-2.28563 2.287619,-3.283103 -6.59408,-9.984696 -0.726702,2.717669 -1.990966,-8.342149 -1.13087,-5.112801 -0.511678,-3.095952 2.663913,3.149709 c 0,0 2.395066,2.878804 2.448889,2.986449 0.05383,0.107645 2.693777,3.095952 2.693777,3.095953 l 2.474771,3.498127 2.018839,3.201474 1.154761,2.63803 1.292138,3.390615 4.792255,-3.173601 -5.598597,-5.921131 -7.050012,-6.701593 -4.549358,-5.152621 -2.219928,-2.355313 z m 62.026562,0 -1.81178,2.544455 -2.219927,2.355313 -4.549358,5.152621 -7.050012,6.701593 -5.598596,5.921131 4.792256,3.173601 1.292137,-3.390615 1.154759,-2.63803 2.018841,-3.201474 2.474771,-3.498127 c -10e-7,-10e-7 2.639955,-2.988308 2.693777,-3.095953 0.05383,-0.107645 2.448888,-2.986449 2.448888,-2.986449 l 2.663913,-3.149709 -0.511678,3.095952 -1.130869,5.112801 -1.990965,8.342149 -0.726703,-2.717669 -6.59408,9.984696 2.28762,3.283103 1.616663,2.28563 0.670956,1.483269 h 0.457923 l 3.147718,-5.759866 c 0,0 0.70082,-1.481145 0.70082,-1.588789 -10e-7,-0.107644 1.021365,-7.507935 1.021365,-7.507935 L 90.373399,24.59763 Z M 59.837951,34.978527 c -7.710424,0.0056 -12.295538,2.651201 -12.150867,2.590248 0,10e-7 1.983929,1.813105 2.84509,2.351332 0.861162,0.538223 3.291068,0.179186 3.291068,0.179186 0,0 -4.359948,2.366462 -9.419261,6.241679 -5.059315,3.875219 -7.804588,11.519731 -7.804588,11.519731 l 0.860097,2.530518 3.766908,5.379591 3.446363,1.885445 -0.860098,-0.16326 c 0,0 -0.861822,0.0026 -1.077112,1.13286 -0.215291,1.130272 0.860097,3.334868 0.860097,3.334868 l 1.885444,2.476763 3.175593,-0.70082 2.689794,0.754576 -0.215024,3.874419 c 0,0 2.205724,3.446098 2.421015,3.661388 0.215291,0.21529 -0.05375,0.376292 -0.05375,0.376292 l -6.402949,-3.283103 -6.836978,0.268781 6.568199,0.537561 0.698828,0.432039 0.591318,1.883455 1.399649,2.367258 3.066087,2.530518 c 0,0 1.724307,0.914586 3.231338,0.322537 1.507032,-0.592045 1.559524,-0.644213 2.689796,-1.343902 1.130273,-0.699692 1.615803,-1.617329 0.700821,-2.693777 -0.914983,-1.076451 -4.951667,-4.518099 -4.844022,-5.648373 0.07228,-0.759006 2.793254,0.177805 5.630453,0.386249 v 0.0219 c 0.03936,-0.0023 0.07813,-0.0074 0.117467,-0.0099 0.03941,0.0026 0.07803,0.0077 0.117467,0.0099 v -0.0219 c 2.837352,-0.20838 5.558164,-1.145294 5.630452,-0.386249 0.107645,1.130274 -3.92904,4.571922 -4.844021,5.648373 -0.914983,1.076448 -0.429453,1.994085 0.70082,2.693777 1.130273,0.699689 1.182766,0.751857 2.689796,1.343902 1.507031,0.592049 3.231338,-0.322537 3.231338,-0.322537 l 3.066089,-2.530518 1.399649,-2.367258 0.591316,-1.883455 0.698829,-0.432039 6.568199,-0.537561 -6.836979,-0.268781 -6.402947,3.283103 c 0,0 -0.269049,-0.161002 -0.05376,-0.376292 0.215292,-0.21529 2.421015,-3.661388 2.421015,-3.661388 l -0.215023,-3.874419 2.689795,-0.754576 3.17559,0.70082 1.885445,-2.476763 c 0,0 1.075389,-2.204596 0.860098,-3.334868 -0.21529,-1.13031 -1.077113,-1.13286 -1.077113,-1.13286 l -0.860097,0.16326 3.446362,-1.885445 3.766909,-5.379591 0.860097,-2.530518 c 0,0 -2.745272,-7.644512 -7.804587,-11.519731 -5.059314,-3.875217 -9.419262,-6.241679 -9.419262,-6.241679 0,0 2.429905,0.359037 3.291067,-0.179186 0.861161,-0.538227 2.84509,-2.351331 2.84509,-2.351332 0.144671,0.06095 -4.440439,-2.584641 -12.150866,-2.590248 -0.08636,-5.5e-5 -0.179393,0.0072 -0.270771,0.01195 -0.09138,-0.0048 -0.184406,-0.01201 -0.270771,-0.01195 z m -8.03355,20.369576 c 0,0 1.711612,6.487976 2.88292,7.298882 1.171308,0.810908 0.991501,4.413973 0.9915,4.413973 l -2.88491,5.947015 0.45195,-1.891418 -2.882919,-4.055597 c 0,0 -3.154444,0.09087 -5.497057,-2.612148 -2.342616,-2.703019 -2.793327,-6.217787 -2.793327,-6.217787 l -1.71223,-2.251784 c 7.208046,0.991107 10.271395,3.693243 10.271395,3.693243 z m 16.608641,0 1.17268,4.324379 c 0,0 3.063348,-2.702136 10.271394,-3.693243 l -1.712232,2.251784 c 0,0 -0.45071,3.514768 -2.793324,6.217787 -2.342614,2.703022 -5.497059,2.612148 -5.497059,2.612148 l -2.882918,4.055597 0.451948,1.891418 -2.884909,-5.947015 c -10e-7,0 -0.179808,-3.603065 0.991501,-4.413973 1.171308,-0.810906 2.882919,-7.298882 2.882919,-7.298882 z m -40.340958,1.81377 c 0,0 6.166499,13.851078 3.121835,13.204088 C 28.149262,69.718973 -9.4915329,94.191583 4.3616673,85.666537 18.214867,77.141486 38.996516,70.063335 38.996516,70.063335 32.754964,61.00547 28.072084,57.161873 28.072084,57.161873 Z m 64.073276,0 c 0,0 -4.682881,3.843597 -10.924432,12.901462 0,0 20.783602,7.078151 34.636842,15.603202 C 129.71097,94.191583 92.06818,69.718973 89.023524,70.365961 85.97886,71.012951 92.14536,57.161873 92.14536,57.161873 Z M 39.796884,70.975197 c 0,0 -1.182781,0.229192 -1.487252,0.191133 -0.304469,-0.03805 -3.651432,1.2563 -3.651432,1.2563 l 7.573636,3.46229 4.718589,2.930702 0.151314,-1.140824 z m 40.623676,0 -7.304856,6.699601 0.151313,1.140824 4.718591,-2.930702 7.573634,-3.46229 c 0,0 -3.346963,-1.294353 -3.651432,-1.2563 -0.304468,0.03806 -1.48725,-0.191133 -1.48725,-0.191133 z M 59.983291,87.65153 c -0.02829,0.01681 0.720738,0.556653 -5.947017,1.023358 0,0 1.131463,1.666735 5.491085,2.231873 0.16299,0.02113 0.312065,0.01675 0.463896,0.01792 v 0.0099 c 0.03937,-0.0018 0.07876,-0.0032 0.117467,-0.0039 0.03871,7.24e-4 0.07809,0.0021 0.117467,0.0039 v -0.0099 c 0.151831,-0.0012 0.300906,0.0032 0.463895,-0.01792 4.359623,-0.565138 5.491084,-2.231873 5.491084,-2.231873 -6.667754,-0.466705 -5.918718,-1.006549 -5.947016,-1.023358 -0.004,-0.0024 -0.02184,0.0073 -0.08162,0.02788 -0.01519,0.0053 -0.02917,0.0097 -0.0438,0.01393 -0.01463,-0.0042 -0.02861,-0.0087 -0.0438,-0.01393 -0.05979,-0.02063 -0.0776,-0.03028 -0.08163,-0.02788 z" /><path
       id="path4"
       style="opacity:1;fill:#89713b;fill-opacity:1;stroke-width:25.4843"
       d="m 46.986263,58.272833 c -0.720059,0.01147 -0.239197,4.777446 2.40907,5.449275 2.531938,0.642317 3.5041,-0.318555 3.5041,-0.318555 0.477683,-0.267896 1.795898,5.120268 1.592773,2.675859 -0.441368,-5.311397 -7.386083,-7.808136 -7.390467,-7.772733 -0.04109,-0.02349 -0.08007,-0.03442 -0.115476,-0.03385 z m 26.244916,0 c -0.03542,-5.7e-4 -0.07438,0.01036 -0.115475,0.03385 -0.0044,-0.0354 -6.949099,2.461337 -7.390467,7.772733 -0.203126,2.444409 1.115089,-2.943755 1.592773,-2.675859 0,0 0.972164,0.960872 3.504101,0.318555 2.648267,-0.671829 3.129129,-5.437807 2.409068,-5.449275 z" /><path
       id="text1"
       style="font-size:26.3932px;font-family:'Sans Serif Collection';-inkscape-font-specification:'Sans Serif Collection';text-align:center;text-anchor:middle;display:none;fill:#b3b3b3;fill-opacity:1;stroke:#000000;stroke-width:0.549858"
       d="M 25.945312,3.4140625 V 22.603516 h 2.384766 V 5.4375 l 9.097656,17.166016 h 3.158204 V 3.4140625 H 38.201172 V 19.083984 L 29.902344,3.4140625 Z m 56.458985,4.3945313 c -2.096333,0 -3.787443,0.6909827 -5.076172,2.0742187 -1.280138,1.3832355 -1.919922,3.2513905 -1.919922,5.6054685 0,2.379853 0.669487,4.220258 2.009766,5.517578 1.340278,1.28873 3.205305,1.931641 5.59375,1.931641 0.936476,0 1.829126,-0.115685 2.679687,-0.347656 0.850562,-0.231972 1.683805,-0.51962 2.5,-0.863282 V 19.083984 H 88.0625 c -0.420985,0.378028 -1.130336,0.764946 -2.126953,1.160157 -0.988026,0.386618 -1.971738,0.580078 -2.951172,0.580078 -0.738871,0 -1.416566,-0.102397 -2.035156,-0.308594 -0.609999,-0.206197 -1.139178,-0.515341 -1.585938,-0.927734 -0.463942,-0.420985 -0.829366,-0.958372 -1.095703,-1.611329 -0.266337,-0.661547 -0.398437,-1.435385 -0.398437,-2.320312 h 10.605468 v -1.314453 c 0,-2.087741 -0.527226,-3.69795 -1.583984,-4.8320314 C 85.842459,8.3756839 84.345982,7.8085938 82.404297,7.8085938 Z M 43.898438,8.2070312 49.632812,21.90625 46.953125,27.912109 h 2.589844 L 57.945312,8.2070312 H 55.40625 L 50.947266,18.878906 46.527344,8.2070312 Z m 15.658203,0 5.566406,7.2167968 -5.619141,7.179688 h 2.822266 l 4.111328,-5.529297 4.085938,5.529297 h 3.054687 L 67.919922,15.294922 73.578125,8.2070312 H 70.742188 L 66.669922,13.646484 62.609375,8.2070312 Z m 32.591797,0 V 22.603516 h 2.421874 V 12.382812 c 0.644365,-0.524083 1.315805,-0.948912 2.011719,-1.27539 0.695914,-0.33507 1.4166,-0.501953 2.164063,-0.501953 0.463942,0 0.864149,0.02149 1.199218,0.06445 0.343658,0.03437 0.695798,0.09377 1.056638,0.179687 h 0.12891 V 8.3632812 c -0.37803,-0.060141 -0.66255,-0.1000044 -0.85156,-0.1171874 -0.18902,-0.025775 -0.493081,-0.039063 -0.914066,-0.039063 -0.764646,0 -1.516988,0.1637564 -2.255859,0.4902344 -0.73028,0.3178866 -1.576811,0.8634813 -2.539063,1.6367188 V 8.2070312 Z m -9.873047,1.5996094 c 1.288729,0 2.247818,0.3470554 2.875,1.0429684 0.635773,0.695914 0.958205,1.679626 0.966797,2.951172 l -3.898438,-0.09375 -4.349609,0.09375 c 0.103098,-1.134081 0.536135,-2.08301 1.300781,-2.847656 0.773237,-0.764646 1.808148,-1.1464844 3.105469,-1.1464844 z M 41.755859,91.802734 c -1.820537,0.0047 -3.252265,0.526471 -4.294921,1.564454 -1.037669,1.032968 -1.553402,2.441035 -1.548829,4.226562 0.0025,0.975288 0.143829,1.829096 0.425782,2.55859 0.28194,0.7245 0.680871,1.32868 1.197265,1.8125 0.511381,0.47884 1.131593,0.83601 1.857422,1.07422 0.725829,0.23822 1.522321,0.35575 2.392578,0.35352 0.6752,-0.002 1.374063,-0.1056 2.09375,-0.3125 0.724676,-0.21192 1.390538,-0.45859 2,-0.74024 l -0.01172,-4.792965 -4.462891,0.01172 0.002,1.304687 2.994141,-0.0078 0.0059,2.738278 c -0.359722,0.15097 -0.777914,0.27484 -1.257812,0.37109 -0.474897,0.0962 -0.953453,0.14526 -1.433594,0.14649 -1.310387,0.003 -2.347101,-0.39507 -3.109375,-1.19336 -0.762287,-0.80329 -1.144736,-1.927619 -1.148438,-3.373045 -0.0035,-1.370405 0.356914,-2.455719 1.080078,-3.257813 0.728154,-0.807107 1.716428,-1.213594 2.966797,-1.216797 0.555164,-0.0014 1.050931,0.05038 1.486328,0.154297 0.440386,0.0989 0.834189,0.224745 1.179688,0.378907 0.285417,0.129308 0.575507,0.292026 0.871094,0.486328 0.295586,0.194302 0.520428,0.351065 0.675781,0.470703 h 0.134765 l -0.0039,-1.763672 C 45.081587,92.43374 44.364891,92.177651 43.699311,92.02931 43.038719,91.875955 42.391139,91.801121 41.755951,91.802747 Z m 34.240235,2.673828 c -1.22036,0.0031 -2.204966,0.407685 -2.953125,1.214844 -0.743158,0.807146 -1.112885,1.895221 -1.109375,3.265625 0.0035,1.385409 0.397523,2.455759 1.179687,3.208989 0.782152,0.74822 1.867402,1.12074 3.257813,1.11718 0.545161,-10e-4 1.065746,-0.0707 1.560547,-0.20703 0.4948,-0.13631 0.978497,-0.30458 1.453125,-0.50586 l -0.0039,-1.53906 h -0.07422 c -0.244509,0.22069 -0.656747,0.44813 -1.236329,0.67969 -0.574593,0.22654 -1.146628,0.34033 -1.716796,0.34179 -0.430127,0.001 -0.825134,-0.0586 -1.185547,-0.17773 -0.355412,-0.11913 -0.66509,-0.2977 -0.925781,-0.53711 -0.270708,-0.24438 -0.482653,-0.55778 -0.638672,-0.9375 -0.156032,-0.38472 -0.235009,-0.834457 -0.236328,-1.349609 l 6.173828,-0.01563 -0.002,-0.765625 c -0.0031,-1.215358 -0.312815,-2.151927 -0.929687,-2.810547 -0.611871,-0.658632 -1.482948,-0.985316 -2.613281,-0.982422 z m 8.529297,0.0078 c -0.535158,0.0014 -1.020309,0.07174 -1.455079,0.212891 -0.429781,0.136141 -0.783019,0.322807 -1.0625,0.558593 -0.28947,0.240814 -0.506129,0.512898 -0.65039,0.81836 -0.13926,0.305448 -0.209868,0.63146 -0.208984,0.976562 0.0014,0.550163 0.156827,1.015201 0.46289,1.394531 0.311052,0.374317 0.832643,0.658388 1.56836,0.851563 0.265257,0.06934 0.558658,0.132208 0.878906,0.191406 0.325249,0.05918 0.588888,0.111749 0.789062,0.15625 0.540467,0.118652 0.905212,0.262077 1.095703,0.431642 0.190492,0.16957 0.286264,0.4199 0.28711,0.75 0.0011,0.43013 -0.173847,0.74631 -0.523438,0.94727 -0.349591,0.20095 -0.832942,0.30114 -1.453125,0.30273 -0.500147,0.001 -1.024652,-0.0935 -1.570312,-0.28711 -0.545674,-0.19866 -1.040339,-0.46487 -1.486328,-0.79883 h -0.07617 l 0.0039,1.58204 c 0.350552,0.17415 0.785245,0.33565 1.300781,0.48437 0.520525,0.14371 1.090755,0.21448 1.710938,0.21289 1.095323,-0.003 1.957007,-0.25043 2.585937,-0.74219 0.633932,-0.49177 0.949226,-1.11954 0.947266,-1.88476 -0.0016,-0.61018 -0.179104,-1.099555 -0.535156,-1.468755 -0.35604,-0.364198 -0.862001,-0.621165 -1.517578,-0.769531 -0.215192,-0.04946 -0.485298,-0.102924 -0.810547,-0.162109 -0.320249,-0.0592 -0.610864,-0.118383 -0.871094,-0.177735 -0.470421,-0.108828 -0.810974,-0.251267 -1.021485,-0.425781 -0.215511,-0.174501 -0.323334,-0.434195 -0.324218,-0.779297 -9.99e-4,-0.390115 0.174691,-0.682939 0.529297,-0.878906 0.354592,-0.200969 0.789535,-0.301415 1.304687,-0.302735 0.495146,-0.0013 0.999999,0.0897 1.515625,0.273438 0.515613,0.178734 0.955621,0.399906 1.316406,0.664062 h 0.07422 l -0.0039,-1.507812 c -0.340549,-0.174181 -0.767744,-0.320737 -1.283203,-0.439453 -0.510471,-0.123731 -1.017431,-0.184875 -1.517578,-0.183594 z m -17.419922,0.01367 c -0.535158,0.0014 -1.036272,0.109904 -1.50586,0.326172 -0.4696,0.211266 -0.989655,0.55746 -1.558593,1.039062 -0.196147,-0.424626 -0.493799,-0.755094 -0.894532,-0.99414 -0.395731,-0.239059 -0.87905,-0.358883 -1.449218,-0.357422 -0.495147,0.0013 -0.962739,0.106312 -1.402344,0.3125 -0.434603,0.206175 -0.871352,0.491187 -1.310547,0.857422 l -0.002,-0.929688 -1.41211,0.0039 0.02148,8.378912 1.412109,-0.004 -0.01758,-6.255861 c 0.384358,-0.296073 0.76967,-0.539426 1.154297,-0.730469 0.389628,-0.191055 0.776996,-0.288076 1.162109,-0.289062 0.40512,-10e-4 0.714343,0.05458 0.929688,0.164062 0.215332,0.10448 0.382462,0.263747 0.498047,0.478516 0.105543,0.19979 0.172258,0.467712 0.203125,0.802734 0.03586,0.330008 0.05569,0.678719 0.05664,1.048828 l 0.01172,4.771482 1.410156,-0.004 -0.01367,-5.363285 c -3.85e-4,-0.150044 -0.0052,-0.2992 -0.01563,-0.449218 -0.0104,-0.155021 -0.02376,-0.291255 -0.03906,-0.40625 0.394335,-0.306102 0.788977,-0.557837 1.183594,-0.753907 0.394604,-0.201071 0.788477,-0.301722 1.183594,-0.302734 0.405119,-0.001 0.716295,0.05458 0.93164,0.164062 0.215345,0.109482 0.380509,0.27156 0.496094,0.486329 0.105543,0.19979 0.174211,0.465759 0.205078,0.800781 0.03587,0.335009 0.05376,0.682862 0.05469,1.042969 l 0.01172,4.771483 1.410156,-0.004 -0.01367,-5.439459 c -0.0026,-1.000295 -0.224464,-1.776041 -0.666016,-2.330078 -0.436563,-0.559051 -1.114885,-0.838294 -2.035156,-0.835937 z m -15.896485,0.07031 c -0.505149,0.0013 -1.017186,0.04927 -1.537109,0.140625 -0.519923,0.09136 -0.91847,0.174274 -1.193359,0.25 l 0.0039,1.433594 0.07617,-0.002 c 0.484669,-0.186297 0.953312,-0.327634 1.408203,-0.423828 0.454878,-0.101195 0.868172,-0.151396 1.238281,-0.152344 0.30509,-7.81e-4 0.596768,0.0193 0.876953,0.05859 0.280185,0.03929 0.52035,0.115947 0.720703,0.230469 0.21037,0.119497 0.371852,0.28436 0.482422,0.49414 0.115572,0.209768 0.173009,0.474828 0.173828,0.794922 v 0.216797 c -0.820139,0.04211 -1.587728,0.103692 -2.302734,0.185547 -0.715006,0.08186 -1.326363,0.236518 -1.835938,0.46289 -0.504572,0.226361 -0.893899,0.537773 -1.167968,0.933594 -0.269081,0.390807 -0.402018,0.903872 -0.400391,1.539062 0.002,0.77523 0.26458,1.41135 0.791016,1.91015 0.526436,0.49881 1.168605,0.74803 1.923828,0.7461 0.410121,-0.001 0.76738,-0.0422 1.072265,-0.12305 0.304898,-0.0758 0.573819,-0.17147 0.808594,-0.28711 0.199829,-0.0905 0.405557,-0.21074 0.615235,-0.36133 0.214666,-0.15559 0.382993,-0.27598 0.507812,-0.36132 l 0.0039,0.89257 1.402344,-0.004 -0.01563,-5.6875 c -0.0014,-0.540159 -0.08402,-0.992737 -0.25,-1.357422 -0.165984,-0.364685 -0.406974,-0.661364 -0.722656,-0.890625 -0.320697,-0.234249 -0.700252,-0.398286 -1.140625,-0.492187 -0.435385,-0.09892 -0.948888,-0.147996 -1.539063,-0.146485 z m 24.714844,1.070313 c 0.750222,-0.0019 1.307683,0.199331 1.673828,0.603516 0.371147,0.404171 0.561462,0.976591 0.56836,1.716796 l -4.802735,0.01172 c 0.05833,-0.660348 0.309915,-1.213885 0.753907,-1.660156 0.448992,-0.446284 1.051417,-0.669941 1.80664,-0.671876 z M 53.462891,98.75 l 0.0059,2.33203 c -0.349412,0.27098 -0.72905,0.50507 -1.138672,0.70117 -0.409634,0.19111 -0.862276,0.2878 -1.357422,0.28907 -0.595175,0.002 -1.037424,-0.1181 -1.328125,-0.35743 -0.290713,-0.24433 -0.43627,-0.60579 -0.4375,-1.08593 -0.0011,-0.42513 0.121635,-0.759292 0.371094,-1.000004 0.249446,-0.245713 0.577597,-0.424944 0.982422,-0.541015 0.339857,-0.0959 0.798863,-0.171156 1.378906,-0.222657 0.585045,-0.05151 1.093375,-0.08912 1.523438,-0.115234 z"
       sodipodi:nodetypes="cccccccccccscscssccccscccccscscccccccccccccccccccccccccccscccccsccccscccccsscsccssccccccccscscsccsccccsscscssccccscccccscsscccsccccsssscccccscscccccscscccccsscccsccccccccsccccccccccsscccccccsssccccssccccsccssscccccccsccssccccscccscscccc" /></g></svg>
