<?xml version="1.0" encoding="UTF-8" standalone="no"?>
<!-- Created with Inkscape (http://www.inkscape.org/) -->

<svg
   width="120"
   height="120"
   viewBox="0 0 120 120"
   version="1.1"
   id="svg1"
   xml:space="preserve"
   inkscape:version="1.3.2 (091e20e, 2023-11-25, custom)"
   sodipodi:docname="Logo.svg"
   inkscape:export-filename="Logo.png"
   inkscape:export-xdpi="800"
   inkscape:export-ydpi="800"
   xmlns:inkscape="http://www.inkscape.org/namespaces/inkscape"
   xmlns:sodipodi="http://sodipodi.sourceforge.net/DTD/sodipodi-0.dtd"
   xmlns="http://www.w3.org/2000/svg"
   xmlns:svg="http://www.w3.org/2000/svg"><sodipodi:namedview
     id="namedview1"
     pagecolor="#ffffff"
     bordercolor="#000000"
     borderopacity="0.25"
     inkscape:showpageshadow="2"
     inkscape:pageopacity="0.0"
     inkscape:pagecheckerboard="0"
     inkscape:deskcolor="#d1d1d1"
     inkscape:document-units="px"
     inkscape:zoom="4"
     inkscape:cx="44.625"
     inkscape:cy="70.625"
     inkscape:window-width="1280"
     inkscape:window-height="961"
     inkscape:window-x="-8"
     inkscape:window-y="-8"
     inkscape:window-maximized="1"
     inkscape:current-layer="layer1"
     inkscape:export-bgcolor="#ffffff00" /><defs
     id="defs1"><filter
       inkscape:collect="always"
       style="color-interpolation-filters:sRGB"
       id="filter181"
       x="-0.010716174"
       y="-0.013127081"
       width="1.0214323"
       height="1.0262542"><feGaussianBlur
         inkscape:collect="always"
         stdDeviation="0.50513201"
         id="feGaussianBlur181" /></filter></defs><g
     inkscape:label="Capa 1"
     inkscape:groupmode="layer"
     id="layer1"><path
       id="path10"
       style="display:inline;opacity:1;mix-blend-mode:normal;fill:#1a1a1a;fill-opacity:1;stroke-width:25.9909;filter:url(#filter181)"
       d="m 60.117876,16.616713 c -0.03545,0 -0.07022,0.0018 -0.105651,0.0019 -10.295229,0.02979 -19.706677,3.907613 -26.960314,10.296208 h -0.0019 v -0.0019 h -0.0019 V 26.911 h -0.0019 v -0.0038 h -0.0019 -0.0019 c -0.0015,-3.84e-4 -0.0021,-0.0039 -0.0038,-0.0058 0,-2e-5 -0.003,-10e-4 -0.0038,-0.0019 v -0.0019 h -0.0019 v -0.0019 h -0.0019 v -0.0019 h -0.0019 v -0.0019 l -0.0019,-0.0019 v -0.0019 h -0.0019 v -0.0019 -0.0019 h -0.0019 v -0.0019 h -0.0019 v -0.0019 -0.0019 h -0.0019 v -0.0019 l -0.0019,-0.0019 h -0.0019 c -0.0013,-0.0013 -0.0015,-0.0034 -0.0019,-0.0038 l -0.0019,-0.0019 v -0.0019 l -0.0019,-0.0019 -0.0019,-0.0038 -0.0019,-0.0019 -0.0019,-0.0019 -0.0058,-0.0019 V 26.852 c -0.0014,-0.0017 -0.008,-0.0096 -0.0096,-0.01153 l -0.0019,-0.0019 -0.0019,-0.0019 -0.0019,-0.0019 v -0.0019 l -0.0019,-0.0019 v -0.0019 c -0.0024,-0.0029 -0.0032,-0.0026 -0.0058,-0.0058 l -0.0019,-0.0019 -0.0019,-0.0019 c -0.0018,-0.0022 -0.0019,-0.0015 -0.0038,-0.0038 -0.0012,-0.0015 -0.0026,-0.0043 -0.0038,-0.0058 -0.0012,-0.0015 -0.0026,-0.0042 -0.0038,-0.0058 -0.0032,-0.0039 -0.01008,-0.01124 -0.01345,-0.01537 -8.72e-4,-0.0011 -0.0029,-0.0027 -0.0038,-0.0038 -0.0066,-0.0081 -0.01764,-0.02376 -0.02497,-0.03266 -0.003,-0.0036 -0.0083,-0.0077 -0.01152,-0.01153 l -0.0019,-0.0019 v -0.0019 h -0.0019 l -0.0019,-0.0019 c -0.0024,-0.0029 -0.0053,-0.0066 -0.0077,-0.0096 l -0.0019,-0.0019 v -0.0019 l -0.0019,-0.0019 -0.0019,-0.0019 -0.0019,-0.0019 -0.0019,-0.0019 -0.0019,-0.0038 c -0.002,-0.0024 -0.0037,-0.0053 -0.0058,-0.0077 l -0.0019,-0.0019 v -0.0019 l -0.0019,-0.0019 -0.0019,-0.0019 -0.0038,-0.0038 -0.0019,-0.0019 -0.0019,-0.0019 -0.0019,-0.0019 c -9.29e-4,-0.0011 -8.74e-4,-0.0027 -0.0019,-0.0038 l -0.0019,-0.0019 -0.0019,-0.0019 -0.0019,-0.0019 v -0.0019 c -0.0044,-0.0052 -0.0106,-0.01165 -0.01537,-0.01729 -0.0053,-0.0063 -0.01379,-0.01464 -0.01921,-0.02113 l -0.0019,-0.0019 -0.0019,-0.0019 c -0.0036,-0.0043 -0.0079,-0.0091 -0.01153,-0.01345 -0.0019,-0.0022 -0.0058,-0.0073 -0.0077,-0.0096 l -0.0019,-0.0019 -0.0019,-0.0038 c -0.0018,-0.0021 -0.002,-0.0036 -0.0038,-0.0058 l -0.0019,-0.0019 -0.0019,-0.0019 -0.0019,-0.0019 c -0.0025,-0.0029 -0.0052,-0.0066 -0.0077,-0.0096 l -0.0019,-0.0019 v -0.0019 c -0.0014,-0.0017 -0.0063,-0.006 -0.0077,-0.0077 l -0.0019,-0.0019 -0.0019,-0.0019 v -0.0019 l -0.0019,-0.0019 -0.0038,-0.0019 -0.0019,-0.0019 -0.0019,-0.0019 -0.0019,-0.0019 c -0.0022,-0.0026 -0.0055,-0.0069 -0.0077,-0.0096 l -0.0019,-0.0019 c -0.0035,-0.0042 -0.0061,-0.0093 -0.0096,-0.01345 -0.01514,-0.01803 -0.03778,-0.04437 -0.05379,-0.06339 l -0.0019,-0.0019 c -0.0024,-0.0028 -0.0053,-0.0067 -0.0077,-0.0096 v -0.0019 l -0.0019,-0.0019 -0.0038,-0.0019 -0.0019,-0.0019 c -0.01134,-0.01339 -0.02093,-0.02644 -0.03266,-0.04034 -9.31e-4,-0.0011 -8.74e-4,-0.0027 -0.0019,-0.0038 -5.39e-4,-6.38e-4 -0.152024,-0.257819 -0.303507,-0.514811 l -0.885551,-1.671213 c -0.06189,-0.07321 0.993733,1.957401 0.931653,1.884437 -0.0021,-0.0025 -0.0037,-0.0052 -0.0058,-0.0077 -0.0012,-0.0015 -0.0026,-0.0023 -0.0038,-0.0038 -0.0042,-0.0049 -0.0074,-0.0124 -0.01153,-0.01729 -0.0012,-0.0014 -0.0026,-0.0024 -0.0038,-0.0038 -0.0033,-0.0038 -0.0063,-0.0077 -0.0096,-0.01153 -0.0064,-0.0075 -0.0148,-0.01371 -0.02113,-0.02113 -0.0038,-0.0044 -0.0078,-0.0091 -0.01152,-0.01345 -0.0023,-0.0027 -0.0034,-0.005 -0.0058,-0.0077 -0.0058,-0.0068 -0.0096,-0.01056 -0.01537,-0.01729 -0.0031,-0.0036 -0.0065,-0.0079 -0.0096,-0.01153 -10e-4,-0.0012 -8.05e-4,-0.0026 -0.0019,-0.0038 -0.0065,-0.0076 -0.01085,-0.01551 -0.01729,-0.02305 l -0.0019,-0.0019 c -0.0017,-0.002 -0.0021,-0.0037 -0.0038,-0.0058 -0.0032,-0.0037 -0.0084,-0.0078 -0.01152,-0.01152 l -0.0019,-0.0019 -0.0019,-0.0019 -0.0038,-0.0019 c -0.0075,-0.0088 -0.01186,-0.01447 -0.01921,-0.02305 l -0.0019,-0.0019 c -0.0037,-0.0043 -0.0075,-0.009 -0.01153,-0.01345 -0.0018,-0.0021 -0.002,-0.0017 -0.0038,-0.0038 -0.0083,-0.0096 -0.01691,-0.02328 -0.02497,-0.03266 l -0.0019,-0.0019 -0.0019,-0.0019 -0.0019,-0.0019 -0.0019,-0.0019 -0.0019,-0.0019 c -0.01404,-0.01635 -0.03469,-0.03829 -0.04802,-0.05379 -0.0058,-0.0068 -0.0058,-0.0069 -0.01152,-0.01345 -0.0074,-0.0086 -0.0082,-0.01093 -0.01537,-0.01921 -0.003,-0.0034 -0.0028,-0.0043 -0.0058,-0.0077 l -0.0019,-0.0019 c -0.0088,-0.01024 -0.02044,-0.023 -0.02881,-0.03266 v -0.0019 c -0.0041,-0.0047 -0.0037,-0.005 -0.0077,-0.0096 -0.0022,-0.0025 -0.0056,-0.0052 -0.0077,-0.0077 l -0.0019,-0.0019 -0.0019,-0.0019 -0.0038,-0.0019 c -0.0025,-0.0029 -0.0033,-0.0029 -0.0058,-0.0058 l -0.0019,-0.0019 v -0.0019 c -0.0036,-0.0042 -0.0042,-0.0037 -0.0077,-0.0077 -0.0069,-0.0079 -0.0089,-0.01178 -0.01537,-0.01921 l -0.0019,-0.0019 v -0.0019 c -0.0018,-0.0021 -0.004,-0.0056 -0.0058,-0.0077 v -0.0019 c -0.0015,-0.0017 -0.0024,-0.0022 -0.0038,-0.0038 h -0.0019 v -0.0019 l -0.0038,-0.0019 -0.01537,-0.01729 -0.0019,-0.0019 -0.0019,-0.0019 -0.0019,-0.0019 -0.0019,-0.0019 v -0.0019 l -0.0019,-0.0019 h -0.0019 c -0.0012,-0.0014 -0.0026,-0.0025 -0.0038,-0.0038 -0.0012,-0.0013 -0.0027,-0.0025 -0.0038,-0.0038 -6.97e-4,-7.77e-4 -0.0031,-0.003 -0.0038,-0.0038 l -0.0019,-0.0019 -0.0019,-0.0019 c -7.13e-4,-8.03e-4 -0.0031,-0.003 -0.0038,-0.0038 l -0.0019,-0.0038 c -0.0017,-0.0019 -0.0042,-0.0078 -0.0058,-0.0096 -0.0053,-0.0059 -0.0089,-0.0084 -0.01345,-0.01345 -0.0013,-0.0014 -0.0046,-0.0045 -0.0058,-0.0058 l -0.0019,-0.0019 c -7.14e-4,-7.75e-4 -0.0031,-0.0031 -0.0038,-0.0038 v -0.0019 l -0.0019,-0.0019 c -0.0015,-0.0016 -0.0083,-0.0082 -0.0096,-0.0096 -0.0014,-0.0014 -0.0025,-0.0044 -0.0038,-0.0058 h -0.0019 v -0.0019 h -0.0019 l -0.0019,-0.0019 v -0.0019 l -0.0019,-0.0019 -0.0019,-0.0019 h -0.0019 l -0.0019,-0.0019 v -0.0019 c -9.33e-4,-9.03e-4 -0.0049,-0.003 -0.0058,-0.0038 h -0.0019 v -0.0038 l -0.0019,-0.0019 h -0.0019 v -0.0019 h -0.0019 l -0.0019,-0.0019 h -0.0019 l -0.0019,-0.0019 v -0.0019 h -0.0019 -0.0019 -0.0019 -0.0038 l 0.0019,0.0019 v 0.0019 0.0019 0.0019 0.0019 0.0038 0.0019 0.0019 0.0019 0.0019 l 0.0019,0.0019 v 0.0019 0.0019 0.0019 0.0019 0.0019 0.0019 c 1.18e-4,0.0011 0.0017,0.0026 0.0019,0.0038 v 0.0019 0.0019 0.0019 0.0019 0.0019 l 0.0019,0.0019 v 0.0019 0.0019 0.0019 0.0019 0.0019 c 4.49e-4,0.0033 0.0013,0.006 0.0019,0.0096 1.25e-4,9.46e-4 -1.3e-4,0.0028 0,0.0038 v 0.0019 0.0019 c 9e-5,6.06e-4 0.0018,0.0051 0.0019,0.0058 v 0.0038 c 9.27e-4,0.0067 0.0026,0.015 0.0038,0.02305 v 0.0019 c 3.07e-4,0.002 0.0015,0.0113 0.0019,0.01345 v 0.0019 c 5.77e-4,0.0038 0.0012,0.0055 0.0019,0.0096 v 0.0019 0.0019 c 0.002,0.01338 0.0013,0.01628 0.0038,0.03266 9.65e-4,0.0062 0.0066,0.02225 0.0077,0.02881 v 0.0019 c 8.17e-4,0.0052 0.003,0.0176 0.0038,0.02305 v 0.0019 0.0019 c 3.6e-4,0.0023 0.0015,0.0072 0.0019,0.0096 v 0.0019 0.0019 c 2.48e-4,0.0016 0.0016,0.0042 0.0019,0.0058 0.0049,0.03139 0.0055,0.03871 0.01153,0.07684 6.25e-4,0.0039 0.0012,0.0095 0.0019,0.01345 0.0021,0.01316 0.0016,0.01117 0.0038,0.02497 v 0.0019 c 3.31e-4,0.0021 -3.33e-4,0.0017 0,0.0038 0.0019,0.01162 0.0058,0.03028 0.0077,0.04226 0.0073,0.0454 0.0168,0.107045 0.02497,0.157517 v 0.0019 c 6.05e-4,0.0037 0.0012,0.0077 0.0019,0.01153 v 0.0019 0.0019 c 2.24e-4,0.0014 0.0016,0.0024 0.0019,0.0038 0.0039,0.02394 0.0075,0.05012 0.01153,0.07492 0.0065,0.04023 0.01235,0.07906 0.01921,0.121019 0.0013,0.0082 0.0025,0.01481 0.0038,0.02305 0.0012,0.0073 6.3e-4,0.0119 0.0019,0.01921 4.41e-4,0.0027 0.0033,0.0069 0.0038,0.0096 v 0.0019 0.0019 l 0.0019,0.0019 v 0.0019 0.0019 0.0019 c 0.01015,0.06191 0.01835,0.111408 0.02881,0.174805 8.16e-4,0.0049 0.001,0.0085 0.0019,0.01345 0.0048,0.02901 0.0067,0.04783 0.01153,0.07684 4.32e-4,0.0026 0.0014,0.0031 0.0019,0.0058 9.46e-4,0.0057 8.74e-4,0.0078 0.0019,0.01345 0.0091,0.05518 0.01215,0.08044 0.02113,0.134465 0.004,0.02374 -0.668563,-2.107634 -0.664643,-2.084214 0.0013,0.0081 -0.489217,-0.353778 -0.487917,-0.345768 0.01313,0.07866 0.82017,1.851315 1.056514,2.403089 0.07584,0.245277 0.206765,0.670188 0.207461,0.674248 l -0.983519,-2.149526 c 9.29e-4,0.0054 0.98454,2.157853 0.98544,2.162973 6.17e-4,0.0035 0.0013,0.0061 0.0019,0.0096 v 0.0019 c 0.0026,0.01462 0.01123,0.05464 0.01345,0.06723 1.77e-4,9.85e-4 -1.74e-4,0.0028 0,0.0038 v 0.0019 c 8.3e-4,0.0047 0.003,0.01673 0.0038,0.02113 4.98e-4,0.0028 0.0014,0.0031 0.0019,0.0058 1.49e-4,8.07e-4 -1.45e-4,0.003 0,0.0038 3.87e-4,0.0021 0.0034,0.0076 0.0038,0.0096 0.0014,0.008 6.75e-4,0.01426 0.0019,0.02113 1.3e-4,7e-4 -1.28e-4,0.0031 0,0.0038 2.94e-4,0.0015 0.0035,0.0082 0.0038,0.0096 v 0.0019 c 3.64e-4,0.0019 0.0015,0.0098 0.0019,0.01153 2.96e-4,0.0017 0.0016,0.0041 0.0019,0.0058 v 0.0019 0.0019 0.0019 c 2.68e-4,0.0016 0.0016,0.0043 0.0019,0.0058 4.18e-4,0.0021 -3.75e-4,0.0019 0,0.0038 6.83e-4,0.0038 0.0012,0.0074 0.0019,0.01153 8.59e-4,0.0051 0.0031,0.01878 0.0038,0.02305 1.86e-4,0.0014 -1.75e-4,0.0045 0,0.0058 v 0.0019 c 1.53e-4,0.0013 0.0017,0.0027 0.0019,0.0038 v 0.0038 C 23.774681,35.508473 18.48324,46.826177 18.483493,59.41666 c -7.2e-5,6.223277 1.329531,12.257243 3.766952,17.749433 -12.230374,5.527379 -18.6906915,10.4422 -18.6906915,10.4422 l 19.6914985,-8.22352 c 0,0 0.04459,-0.02669 0.04802,-0.02882 3.298404,6.436278 8.176444,12.009792 14.318645,16.066696 h -0.0461 l 22.442277,13.411961 v 0.13446 l 0.113335,-0.0672 0.111414,0.0672 v -0.13446 L 82.677329,95.423045 h -0.0461 C 88.77343,91.366142 93.65147,85.792628 96.949874,79.35635 c 0.0034,0.0021 0.04802,0.02881 0.04802,0.02881 l 19.691496,8.22352 c 0,0 -6.46031,-4.91482 -18.690689,-10.442199 2.437419,-5.49219 3.767029,-11.526157 3.766949,-17.749433 2.6e-4,-12.590483 -5.291185,-23.908187 -13.711627,-31.739599 v -0.0038 c 2e-4,-0.0011 0.0018,-0.0025 0.0019,-0.0038 v -0.0019 c 1.75e-4,-0.0013 -1.86e-4,-0.0044 0,-0.0058 7e-4,-0.0043 0.003,-0.01795 0.0038,-0.02305 7e-4,-0.0041 0.0012,-0.0077 0.0019,-0.01152 3.75e-4,-0.0019 -4.18e-4,-0.0017 0,-0.0038 3e-4,-0.0015 0.0017,-0.0042 0.0019,-0.0058 v -0.0019 -0.0019 -0.0019 c 3e-4,-0.0017 0.0016,-0.0041 0.0019,-0.0058 4e-4,-0.0017 0.0016,-0.0096 0.0019,-0.01153 v -0.0019 c 3e-4,-0.0014 0.0016,-0.0081 0.0019,-0.0096 1.28e-4,-7e-4 -1.3e-4,-0.0031 0,-0.0038 0.0012,-0.0069 5.21e-4,-0.01313 0.0019,-0.02113 4e-4,-0.002 0.0035,-0.0075 0.0038,-0.0096 1.45e-4,-8e-4 -1.49e-4,-0.003 0,-0.0038 5e-4,-0.0027 0.0014,-0.003 0.0019,-0.0058 8e-4,-0.0044 0.003,-0.01643 0.0038,-0.02113 v -0.0019 c 1.74e-4,-0.001 -1.77e-4,-0.0029 0,-0.0038 0.0022,-0.01259 0.01085,-0.05261 0.01345,-0.06723 v -0.0019 c 6e-4,-0.0035 0.0013,-0.0061 0.0019,-0.0096 9e-4,-0.0051 0.98451,-2.157573 0.985439,-2.162973 l -0.983518,2.149526 c 6.96e-4,-0.0041 0.131621,-0.428971 0.207461,-0.674248 0.236344,-0.551774 1.043384,-2.324429 1.056514,-2.403089 0.0013,-0.008 -0.489218,0.353868 -0.487918,0.345768 0.0039,-0.02342 -0.668643,2.107954 -0.664643,2.084214 0.009,-0.05402 0.01203,-0.07928 0.02113,-0.134465 10e-4,-0.0057 9.75e-4,-0.0077 0.0019,-0.01345 5e-4,-0.0027 0.0015,-0.0032 0.0019,-0.0058 0.0048,-0.02901 0.0067,-0.04783 0.01153,-0.07684 9e-4,-0.005 0.0011,-0.0085 0.0019,-0.01345 0.01046,-0.0634 0.01866,-0.112895 0.02881,-0.174805 v -0.0019 -0.0019 -0.0019 l 0.0019,-0.0019 v -0.0019 -0.0019 c 5e-4,-0.0027 0.0034,-0.0069 0.0038,-0.0096 0.0013,-0.0073 7.21e-4,-0.01191 0.0019,-0.01921 0.0013,-0.0082 0.0025,-0.01485 0.0038,-0.02305 0.0069,-0.04196 0.01271,-0.08079 0.01921,-0.121019 0.004,-0.0248 0.0076,-0.05098 0.01153,-0.07492 3e-4,-0.0014 0.0017,-0.0024 0.0019,-0.0038 v -0.0019 -0.0019 c 7e-4,-0.0038 0.0013,-0.0078 0.0019,-0.01153 v -0.0019 c 0.0082,-0.05047 0.01767,-0.112117 0.02497,-0.157517 0.0019,-0.01198 0.0058,-0.03064 0.0077,-0.04226 3.33e-4,-0.0021 -3.31e-4,-0.0017 0,-0.0038 v -0.0019 c 0.0022,-0.0138 0.0017,-0.01181 0.0038,-0.02497 7e-4,-0.0039 0.0013,-0.0095 0.0019,-0.01345 0.006,-0.03813 0.0066,-0.04545 0.01153,-0.07684 3e-4,-0.0016 0.0017,-0.0042 0.0019,-0.0058 v -0.0019 -0.0019 c 4e-4,-0.0024 0.0016,-0.0073 0.0019,-0.0096 v -0.0019 -0.0019 c 8e-4,-0.0054 0.003,-0.01785 0.0038,-0.02305 v -0.0019 c 0.0011,-0.0066 0.0067,-0.02261 0.0077,-0.02881 0.0025,-0.01638 0.0018,-0.01928 0.0038,-0.03266 v -0.0019 -0.0019 c 7e-4,-0.0041 0.0013,-0.0058 0.0019,-0.0096 v -0.0019 c 4e-4,-0.0022 0.0016,-0.01145 0.0019,-0.01345 v -0.0019 c 0.0012,-0.0081 0.0029,-0.01635 0.0038,-0.02305 v -0.0038 c 1e-4,-7e-4 0.0018,-0.0052 0.0019,-0.0058 v -0.0019 -0.0019 c 1.3e-4,-0.001 -1.25e-4,-0.0029 0,-0.0038 6e-4,-0.0036 0.0015,-0.0063 0.0019,-0.0096 v -0.0019 -0.0019 -0.0019 -0.0019 -0.0019 l 0.0019,-0.0019 v -0.0019 -0.0019 -0.0019 -0.0019 -0.0019 c 2e-4,-0.0012 0.0018,-0.0027 0.0019,-0.0038 v -0.0019 -0.0019 -0.0019 -0.0019 -0.0019 -0.0019 l 0.0019,-0.0019 v -0.0019 -0.0019 -0.0019 -0.0019 -0.0038 -0.0019 -0.0019 -0.0019 l 0.0019,-0.0019 h -0.0038 -0.0019 -0.0019 -0.0019 v 0.0019 l -0.0019,0.0019 h -0.0019 -0.0019 -0.0019 v 0.0019 h -0.0019 l -0.0019,0.0019 v 0.0038 h -0.0019 c -9e-4,8e-4 -0.0048,0.0029 -0.0058,0.0038 v 0.0019 l -0.0019,0.0019 h -0.0019 l -0.0019,0.0019 -0.0019,0.0019 v 0.0019 l -0.0019,0.0019 h -0.0019 v 0.0019 h -0.0019 c -0.0013,0.0014 -0.0024,0.0044 -0.0038,0.0058 -0.0013,0.0014 -0.0081,0.008 -0.0096,0.0096 l -0.0019,0.0019 v 0.0019 c -7e-4,7e-4 -0.0031,0.0031 -0.0038,0.0038 l -0.0019,0.0019 c -0.0012,0.0013 -0.0045,0.0044 -0.0058,0.0058 -0.0045,0.0051 -0.0081,0.0075 -0.01345,0.01345 -0.0016,0.0018 -0.0041,0.0077 -0.0058,0.0096 l -0.0019,0.0038 c -7e-4,8e-4 -0.0031,0.003 -0.0038,0.0038 l -0.0019,0.0019 -0.0019,0.0019 c -7e-4,8e-4 -0.0031,0.0031 -0.0038,0.0038 -0.0011,0.0013 -0.0026,0.0025 -0.0038,0.0038 -0.0012,0.0013 -0.0026,0.0024 -0.0038,0.0038 h -0.0019 l -0.0019,0.0019 v 0.0019 l -0.0019,0.0019 -0.0019,0.0019 v 0.0019 l -0.0019,0.0019 -0.01537,0.01729 -0.0038,0.0019 v 0.0019 h -0.0019 c -0.0014,0.0016 -0.0023,0.0021 -0.0038,0.0038 v 0.0019 c -0.0018,0.0021 -0.004,0.0056 -0.0058,0.0077 v 0.0019 l -0.0019,0.0019 c -0.0065,0.0074 -0.0085,0.01131 -0.01537,0.01921 -0.0035,0.004 -0.0041,0.0035 -0.0077,0.0077 v 0.0019 l -0.0019,0.0019 c -0.0025,0.0029 -0.0033,0.0029 -0.0058,0.0058 l -0.0038,0.0019 -0.0019,0.0019 -0.0019,0.0019 c -0.0021,0.0025 -0.0055,0.0052 -0.0077,0.0077 -0.004,0.0046 -0.0036,0.0049 -0.0077,0.0096 v 0.0019 c -0.0084,0.0097 -0.02001,0.02242 -0.02881,0.03266 l -0.0019,0.0019 c -0.003,0.0034 -0.0028,0.0043 -0.0058,0.0077 -0.0072,0.0083 -0.008,0.01061 -0.01537,0.01921 -0.0057,0.0066 -0.0057,0.0066 -0.01153,0.01345 -0.01333,0.0155 -0.03398,0.03744 -0.04802,0.05379 l -0.0019,0.0019 -0.0019,0.0019 -0.0019,0.0019 -0.0019,0.0019 -0.0019,0.0019 c -0.0081,0.0094 -0.01667,0.02306 -0.02497,0.03266 -0.0018,0.0021 -0.002,0.0017 -0.0038,0.0038 -0.004,0.0044 -0.0078,0.0091 -0.01152,0.01345 l -0.0019,0.0019 c -0.0074,0.0086 -0.01171,0.01425 -0.01921,0.02305 l -0.0038,0.0019 -0.0019,0.0019 -0.0019,0.0019 c -0.0031,0.0037 -0.0083,0.0078 -0.01153,0.01152 -0.0017,0.0021 -0.0021,0.0038 -0.0038,0.0058 l -0.0019,0.0019 c -0.0064,0.0075 -0.01079,0.01545 -0.01729,0.02305 -0.0011,0.0012 -9.21e-4,0.0026 -0.0019,0.0038 -0.0031,0.0036 -0.0065,0.0079 -0.0096,0.01153 -0.0058,0.0067 -0.0096,0.01049 -0.01537,0.01729 -0.0024,0.0027 -0.0035,0.005 -0.0058,0.0077 -0.0037,0.0043 -0.0077,0.009 -0.01153,0.01345 -0.0063,0.0074 -0.01473,0.01363 -0.02113,0.02113 -0.0033,0.0038 -0.0063,0.0077 -0.0096,0.01153 -0.0012,0.0014 -0.0026,0.0024 -0.0038,0.0038 -0.0041,0.0049 -0.0073,0.01239 -0.01153,0.01729 -0.0012,0.0015 -0.0026,0.0023 -0.0038,0.0038 -0.0021,0.0025 -0.0037,0.0052 -0.0058,0.0077 -0.06208,0.07296 0.993543,-1.957647 0.931654,-1.884437 l -0.885551,1.671213 c -0.151483,0.256992 -0.302969,0.514173 -0.303508,0.514811 -0.001,0.0011 -9.9e-4,0.0027 -0.0019,0.0038 -0.01173,0.0139 -0.02132,0.02695 -0.03266,0.04034 l -0.0019,0.0019 -0.0038,0.0019 -0.0019,0.0019 v 0.0019 c -0.0024,0.0029 -0.0053,0.0068 -0.0077,0.0096 l -0.0019,0.0019 c -0.01601,0.01902 -0.03865,0.04536 -0.05379,0.06339 -0.0035,0.0041 -0.0061,0.0092 -0.0096,0.01345 l -0.0019,0.0019 c -0.0022,0.0027 -0.0055,0.007 -0.0077,0.0096 l -0.0019,0.0019 -0.0019,0.0019 -0.0019,0.0019 -0.0038,0.0019 -0.0019,0.0019 v 0.0019 l -0.0019,0.0019 -0.0019,0.0019 c -0.0014,0.0017 -0.0063,0.006 -0.0077,0.0077 v 0.0019 l -0.0019,0.0019 c -0.0025,0.003 -0.0052,0.0067 -0.0077,0.0096 l -0.0019,0.0019 -0.0019,0.0019 -0.0019,0.0019 c -0.0018,0.0022 -0.002,0.0037 -0.0038,0.0058 l -0.0019,0.0038 -0.0019,0.0019 c -0.0019,0.0023 -0.0058,0.0074 -0.0077,0.0096 -0.0036,0.0043 -0.0079,0.0091 -0.01152,0.01345 l -0.0019,0.0019 -0.0019,0.0019 c -0.0054,0.0065 -0.01391,0.01483 -0.01921,0.02113 -0.0048,0.0056 -0.01097,0.01209 -0.01537,0.01729 v 0.0019 l -0.0019,0.0019 -0.0019,0.0019 -0.0019,0.0019 c -0.001,0.0011 -9.92e-4,0.0027 -0.0019,0.0038 l -0.0019,0.0019 -0.0019,0.0019 -0.0019,0.0019 -0.0038,0.0038 h -0.0019 l -0.0019,0.0019 v 0.0019 l -0.0019,0.0019 c -0.0021,0.0024 -0.0038,0.0053 -0.0058,0.0077 l -0.0019,0.0038 -0.0019,0.0019 -0.0019,0.0019 -0.0019,0.0019 -0.0019,0.0019 v 0.0019 l -0.0019,0.0019 c -0.0024,0.003 -0.0053,0.0067 -0.0077,0.0096 l -0.0019,0.0019 h -0.0019 v 0.0019 l -0.0019,0.0019 c -0.0032,0.0038 -0.0085,0.0079 -0.01153,0.01153 -0.0073,0.0089 -0.01837,0.02456 -0.02497,0.03266 -9e-4,0.0011 -0.003,0.0027 -0.0038,0.0038 -0.0034,0.0041 -0.01025,0.01147 -0.01345,0.01537 -0.0012,0.0016 -0.0026,0.0043 -0.0038,0.0058 -0.0012,0.0015 -0.0026,0.0043 -0.0038,0.0058 -0.0019,0.0023 -0.002,0.0016 -0.0038,0.0038 l -0.0019,0.0019 -0.0019,0.0019 c -0.0026,0.0032 -0.0034,0.0029 -0.0058,0.0058 v 0.0019 l -0.0019,0.0019 v 0.0019 l -0.0019,0.0019 -0.0019,0.0019 -0.0019,0.0019 c -0.0016,0.0019 -0.0082,0.0098 -0.0096,0.01153 v 0.0038 l -0.0058,0.0019 -0.0019,0.0019 -0.0019,0.0019 -0.0019,0.0038 -0.0019,0.0019 v 0.0019 l -0.0019,0.0019 c -4e-4,4e-4 -6.21e-4,0.0025 -0.0019,0.0038 h -0.0019 l -0.0019,0.0019 v 0.0019 h -0.0019 v 0.0019 0.0019 h -0.0019 v 0.0019 h -0.0019 v 0.0019 0.0019 h -0.0019 v 0.0019 l -0.0019,0.0019 v 0.0019 h -0.0019 v 0.0019 h -0.0019 v 0.0019 h -0.0019 v 0.0019 c -8e-4,9e-4 -0.0038,0.0019 -0.0038,0.0019 -0.0017,0.0019 -4.21e-4,0.0054 -0.0019,0.0058 h -0.0019 -0.0019 v 0.0038 h -0.0019 v 0.0019 h -0.0019 v 0.0019 h -0.0019 C 79.943678,20.526271 70.532156,16.648451 60.236974,16.618634 c -0.03992,-1.16e-4 -0.07915,-0.0019 -0.119098,-0.0019 z m -27.667218,9.516309 c 0.03561,0.06251 0.115406,0.200655 0.111415,0.195935 -0.0059,-0.007 -0.01332,-0.01416 -0.01921,-0.02113 z m 55.347882,0 -0.09221,0.174805 c -0.0059,0.007 -0.01331,0.01413 -0.01921,0.02113 -0.004,0.0047 0.0758,-0.133425 0.111414,-0.195935 z m -55.841562,0.651197 c 0.02731,0.06429 0.132973,0.298503 0.134466,0.307349 5.16e-4,0.0031 0.0013,0.0065 0.0019,0.0096 0.0037,0.02175 0.008,0.04826 0.01152,0.06915 5.36e-4,0.0032 0.0013,0.0064 0.0019,0.0096 6.97e-4,0.0041 0.0012,0.01128 0.0019,0.01537 0.0015,0.0088 0.0043,0.02017 0.0058,0.02881 v 0.0019 c 9.91e-4,0.0059 8.49e-4,0.0077 0.0019,0.01345 4.05e-4,0.0024 0.0015,0.0054 0.0019,0.0077 0.0015,0.009 0.0023,0.02201 0.0038,0.03073 v 0.0019 c 0.0024,0.01425 0.0034,0.01332 0.0058,0.02689 v 0.0019 0.0019 c 7.85e-4,0.0046 0.0011,0.0032 0.0019,0.0077 9.63e-4,0.0056 8.74e-4,0.006 0.0019,0.01153 0.003,0.01754 0.0049,0.02612 0.0077,0.04226 z m 56.335242,0 -0.182488,0.587806 c 0.0028,-0.01614 0.0047,-0.02472 0.0077,-0.04226 0.001,-0.0055 9.58e-4,-0.0059 0.0019,-0.01153 8e-4,-0.0045 0.0011,-0.0031 0.0019,-0.0077 v -0.0019 -0.0019 c 0.0024,-0.01357 0.0034,-0.01264 0.0058,-0.02689 v -0.0019 c 0.0015,-0.0087 0.0023,-0.02174 0.0038,-0.03073 4e-4,-0.0023 0.0015,-0.0053 0.0019,-0.0077 0.0011,-0.0057 9.3e-4,-0.0075 0.0019,-0.01345 v -0.0019 c 0.0015,-0.0086 0.0043,-0.02001 0.0058,-0.02881 7e-4,-0.0041 0.0012,-0.01127 0.0019,-0.01537 6e-4,-0.0032 0.0014,-0.0064 0.0019,-0.0096 0.0035,-0.02089 0.0078,-0.0474 0.01153,-0.06915 6e-4,-0.0031 0.0014,-0.0065 0.0019,-0.0096 0.0015,-0.0088 0.107155,-0.243059 0.134465,-0.307349 z"
       transform="matrix(1.0364572,0,0,1.0364572,-2.2068558,-3.3900361)" /><path
       id="path11"
       style="display:inline;opacity:1;fill:#a18570;fill-opacity:1;stroke-width:25.9114"
       d="m 29.095441,19.120482 0.748602,5.477148 1.992958,14.42455 c 0,0 1.021367,7.400291 1.021367,7.507935 0,0.107644 0.700819,1.588789 0.700819,1.588789 l 3.147717,5.759866 h 0.457923 l 0.670955,-1.483269 1.616666,-2.28563 2.287619,-3.283103 -6.59408,-9.984696 -0.726702,2.717669 -1.990966,-8.342149 -1.13087,-5.112801 -0.511678,-3.095952 2.663913,3.149709 c 0,0 2.395066,2.878804 2.448889,2.986449 0.05383,0.107645 2.693777,3.095952 2.693777,3.095953 l 2.474771,3.498127 2.018839,3.201474 1.154761,2.63803 1.292138,3.390615 4.792255,-3.173601 -5.598597,-5.921131 -7.050012,-6.701593 -4.549358,-5.152621 -2.219928,-2.355313 z m 62.026562,0 -1.81178,2.544455 -2.219927,2.355313 -4.549358,5.152621 -7.050012,6.701593 -5.598596,5.921131 4.792256,3.173601 1.292137,-3.390615 1.154759,-2.63803 2.018841,-3.201474 2.474771,-3.498127 c -10e-7,-10e-7 2.639955,-2.988308 2.693777,-3.095953 0.05383,-0.107645 2.448888,-2.986449 2.448888,-2.986449 l 2.663913,-3.149709 -0.511678,3.095952 -1.130869,5.112801 -1.990965,8.342149 -0.726703,-2.717669 -6.59408,9.984696 2.28762,3.283103 1.616663,2.28563 0.670956,1.483269 h 0.457923 l 3.147718,-5.759866 c 0,0 0.70082,-1.481145 0.70082,-1.588789 -10e-7,-0.107644 1.021365,-7.507935 1.021365,-7.507935 L 90.373399,24.59763 Z M 59.837951,34.978527 c -7.710424,0.0056 -12.295538,2.651201 -12.150867,2.590248 0,10e-7 1.983929,1.813105 2.84509,2.351332 0.861162,0.538223 3.291068,0.179186 3.291068,0.179186 0,0 -4.359948,2.366462 -9.419261,6.241679 -5.059315,3.875219 -7.804588,11.519731 -7.804588,11.519731 l 0.860097,2.530518 3.766908,5.379591 3.446363,1.885445 -0.860098,-0.16326 c 0,0 -0.861822,0.0026 -1.077112,1.13286 -0.215291,1.130272 0.860097,3.334868 0.860097,3.334868 l 1.885444,2.476763 3.175593,-0.70082 2.689794,0.754576 -0.215024,3.874419 c 0,0 2.205724,3.446098 2.421015,3.661388 0.215291,0.21529 -0.05375,0.376292 -0.05375,0.376292 l -6.402949,-3.283103 -6.836978,0.268781 6.568199,0.537561 0.698828,0.432039 0.591318,1.883455 1.399649,2.367258 3.066087,2.530518 c 0,0 1.724307,0.914586 3.231338,0.322537 1.507032,-0.592045 1.559524,-0.644213 2.689796,-1.343902 1.130273,-0.699692 1.615803,-1.617329 0.700821,-2.693777 -0.914983,-1.076451 -4.951667,-4.518099 -4.844022,-5.648373 0.07228,-0.759006 2.793254,0.177805 5.630453,0.386249 v 0.0219 c 0.03936,-0.0023 0.07813,-0.0074 0.117467,-0.0099 0.03941,0.0026 0.07803,0.0077 0.117467,0.0099 v -0.0219 c 2.837352,-0.20838 5.558164,-1.145294 5.630452,-0.386249 0.107645,1.130274 -3.92904,4.571922 -4.844021,5.648373 -0.914983,1.076448 -0.429453,1.994085 0.70082,2.693777 1.130273,0.699689 1.182766,0.751857 2.689796,1.343902 1.507031,0.592049 3.231338,-0.322537 3.231338,-0.322537 l 3.066089,-2.530518 1.399649,-2.367258 0.591316,-1.883455 0.698829,-0.432039 6.568199,-0.537561 -6.836979,-0.268781 -6.402947,3.283103 c 0,0 -0.269049,-0.161002 -0.05376,-0.376292 0.215292,-0.21529 2.421015,-3.661388 2.421015,-3.661388 l -0.215023,-3.874419 2.689795,-0.754576 3.17559,0.70082 1.885445,-2.476763 c 0,0 1.075389,-2.204596 0.860098,-3.334868 -0.21529,-1.13031 -1.077113,-1.13286 -1.077113,-1.13286 l -0.860097,0.16326 3.446362,-1.885445 3.766909,-5.379591 0.860097,-2.530518 c 0,0 -2.745272,-7.644512 -7.804587,-11.519731 -5.059314,-3.875217 -9.419262,-6.241679 -9.419262,-6.241679 0,0 2.429905,0.359037 3.291067,-0.179186 0.861161,-0.538227 2.84509,-2.351331 2.84509,-2.351332 0.144671,0.06095 -4.440439,-2.584641 -12.150866,-2.590248 -0.08636,-5.5e-5 -0.179393,0.0072 -0.270771,0.01195 -0.09138,-0.0048 -0.184406,-0.01201 -0.270771,-0.01195 z m -8.03355,20.369576 c 0,0 1.711612,6.487976 2.88292,7.298882 1.171308,0.810908 0.991501,4.413973 0.9915,4.413973 l -2.88491,5.947015 0.45195,-1.891418 -2.882919,-4.055597 c 0,0 -3.154444,0.09087 -5.497057,-2.612148 -2.342616,-2.703019 -2.793327,-6.217787 -2.793327,-6.217787 l -1.71223,-2.251784 c 7.208046,0.991107 10.271395,3.693243 10.271395,3.693243 z m 16.608641,0 1.17268,4.324379 c 0,0 3.063348,-2.702136 10.271394,-3.693243 l -1.712232,2.251784 c 0,0 -0.45071,3.514768 -2.793324,6.217787 -2.342614,2.703022 -5.497059,2.612148 -5.497059,2.612148 l -2.882918,4.055597 0.451948,1.891418 -2.884909,-5.947015 c -10e-7,0 -0.179808,-3.603065 0.991501,-4.413973 1.171308,-0.810906 2.882919,-7.298882 2.882919,-7.298882 z m -40.340958,1.81377 c 0,0 6.166499,13.851078 3.121835,13.204088 C 28.149262,69.718973 -9.4915329,94.191583 4.3616673,85.666537 18.214867,77.141486 38.996516,70.063335 38.996516,70.063335 32.754964,61.00547 28.072084,57.161873 28.072084,57.161873 Z m 64.073276,0 c 0,0 -4.682881,3.843597 -10.924432,12.901462 0,0 20.783602,7.078151 34.636842,15.603202 C 129.71097,94.191583 92.06818,69.718973 89.023524,70.365961 85.97886,71.012951 92.14536,57.161873 92.14536,57.161873 Z M 39.796884,70.975197 c 0,0 -1.182781,0.229192 -1.487252,0.191133 -0.304469,-0.03805 -3.651432,1.2563 -3.651432,1.2563 l 7.573636,3.46229 4.718589,2.930702 0.151314,-1.140824 z m 40.623676,0 -7.304856,6.699601 0.151313,1.140824 4.718591,-2.930702 7.573634,-3.46229 c 0,0 -3.346963,-1.294353 -3.651432,-1.2563 -0.304468,0.03806 -1.48725,-0.191133 -1.48725,-0.191133 z M 59.983291,87.65153 c -0.02829,0.01681 0.720738,0.556653 -5.947017,1.023358 0,0 1.131463,1.666735 5.491085,2.231873 0.16299,0.02113 0.312065,0.01675 0.463896,0.01792 v 0.0099 c 0.03937,-0.0018 0.07876,-0.0032 0.117467,-0.0039 0.03871,7.24e-4 0.07809,0.0021 0.117467,0.0039 v -0.0099 c 0.151831,-0.0012 0.300906,0.0032 0.463895,-0.01792 4.359623,-0.565138 5.491084,-2.231873 5.491084,-2.231873 -6.667754,-0.466705 -5.918718,-1.006549 -5.947016,-1.023358 -0.004,-0.0024 -0.02184,0.0073 -0.08162,0.02788 -0.01519,0.0053 -0.02917,0.0097 -0.0438,0.01393 -0.01463,-0.0042 -0.02861,-0.0087 -0.0438,-0.01393 -0.05979,-0.02063 -0.0776,-0.03028 -0.08163,-0.02788 z" /><path
       id="path4"
       style="opacity:1;fill:#89713b;fill-opacity:1;stroke-width:25.4843"
       d="m 46.986263,58.272833 c -0.720059,0.01147 -0.239197,4.777446 2.40907,5.449275 2.531938,0.642317 3.5041,-0.318555 3.5041,-0.318555 0.477683,-0.267896 1.795898,5.120268 1.592773,2.675859 -0.441368,-5.311397 -7.386083,-7.808136 -7.390467,-7.772733 -0.04109,-0.02349 -0.08007,-0.03442 -0.115476,-0.03385 z m 26.244916,0 c -0.03542,-5.7e-4 -0.07438,0.01036 -0.115475,0.03385 -0.0044,-0.0354 -6.949099,2.461337 -7.390467,7.772733 -0.203126,2.444409 1.115089,-2.943755 1.592773,-2.675859 0,0 0.972164,0.960872 3.504101,0.318555 2.648267,-0.671829 3.129129,-5.437807 2.409068,-5.449275 z" /></g></svg>
